<?xml version="1.0" standalone="no"?>
<!DOCTYPE svg PUBLIC "-//W3C//DTD SVG 1.1//EN" "http://www.w3.org/Graphics/SVG/1.1/DTD/svg11.dtd" >
<svg>
<metadata>
Created by FontForge 20090622 at Thu May 26 18:40:34 2016
 By deploy user
Copyright (c) 2014 by Patrick Giasson. All rights reserved.
</metadata>
<defs>
<font id="NaturaSans-Regular" horiz-adv-x="767" >
  <font-face 
    font-family="NaturaSans"
    font-weight="400"
    font-stretch="normal"
    units-per-em="1000"
    panose-1="2 0 5 3 7 0 0 2 0 4"
    ascent="770"
    descent="-230"
    x-height="499"
    cap-height="710"
    bbox="-97 -228 1134 927"
    underline-thickness="50"
    underline-position="-50"
    unicode-range="U+0020-U+FB02"
  />
<missing-glyph horiz-adv-x="659" 
d="M78 0v700h504v-700h-504zM330 376l202 298h-405zM312 351l-206 303v-606zM554 47v607l-207 -304zM127 27h405l-202 298z" />
    <glyph glyph-name="fi" unicode="fi" horiz-adv-x="501" 
d="M92 30v428l-52 2q-23 0 -23 18t23 18l52 1q3 135 63.5 198t146.5 63q54 0 87 -13q25 -12 25 -27q0 -24 -24 -24q-15 0 -30 9q-32 18 -62 18q-126 0 -126 -181v-42h91q24 0 24 -20t-24 -20h-91v-428q0 -15 -12 -23.5t-29 -8.5t-28 8.5t-11 23.5zM345 30v444
q0 15 11.5 23.5t28.5 8.5t28.5 -8.5t11.5 -23.5v-444q0 -32 -40 -32q-17 0 -28.5 8.5t-11.5 23.5z" />
    <glyph glyph-name="fl" unicode="fl" horiz-adv-x="542" 
d="M352 30v677q-28 14 -54 14q-126 0 -126 -181v-42h90q23 0 23 -20t-23 -20h-90v-428q0 -15 -12 -23.5t-29 -8.5t-28 8.5t-11 23.5v428l-52 2q-23 0 -23 18t23 18l52 1q3 134 64 197.5t146 63.5q47 0 75 -9q9 3 19 3q36 0 36 -32v-690q0 -15 -11 -23.5t-28 -8.5t-29 8.5
t-12 23.5z" />
    <glyph glyph-name=".notdef" horiz-adv-x="659" 
d="M78 0v700h504v-700h-504zM330 376l202 298h-405zM312 351l-206 303v-606zM554 47v607l-207 -304zM127 27h405l-202 298z" />
    <glyph glyph-name=".null" horiz-adv-x="0" 
 />
    <glyph glyph-name="nonmarkingreturn" horiz-adv-x="333" 
 />
    <glyph glyph-name="space" unicode=" " horiz-adv-x="218" 
 />
    <glyph glyph-name="exclam" unicode="!" horiz-adv-x="275" 
d="M138 714q19 0 31 -10t12 -28q0 -17 -4 -77l-21 -385q-1 -18 -19 -18q-17 0 -18 18l-21 384q-3 45 -3 78q0 17 11.5 27.5t31.5 10.5zM137 -7q-22 0 -35.5 12t-13.5 30q0 17 13.5 28.5t35.5 11.5q23 0 36.5 -11.5t13.5 -28.5q0 -19 -13.5 -30.5t-36.5 -11.5z" />
    <glyph glyph-name="quotedbl" unicode="&#x22;" horiz-adv-x="312" 
d="M85 712q36 0 36 -31q0 -15 -4 -49l-13 -117q-2 -19 -19 -19t-19 19l-14 118q-3 27 -3 47q0 32 36 32zM228 712q36 0 36 -31q0 -15 -4 -49l-13 -117q-2 -19 -19 -19t-19 19l-14 118q-3 27 -3 47q0 32 36 32z" />
    <glyph glyph-name="numbersign" unicode="#" horiz-adv-x="692" 
d="M642 454h-117l-31 -199h109q20 0 20 -19q0 -20 -20 -20h-116l-28 -184q-6 -35 -40 -35q-35 0 -35 26q0 7 3 22l27 171h-181l-28 -184q-6 -35 -40 -35q-35 0 -35 26q0 7 3 22l27 171h-111q-19 0 -19 19q0 20 19 20h117l31 199h-109q-19 0 -19 19q0 20 19 20h116l28 182
q5 35 40 35t35 -26q0 -7 -3 -22l-27 -169h182l29 182q6 35 38 35q35 0 35 -26q0 -7 -3 -22l-27 -169h111q20 0 20 -19q0 -20 -20 -20zM271 454l-31 -199h181l32 199h-182z" />
    <glyph glyph-name="dollar" unicode="$" horiz-adv-x="572" 
d="M283 44q74 0 124 37t50 103q0 54 -40.5 87t-135.5 52q-54 11 -91.5 24.5t-69.5 35t-48 54t-16 77.5q0 82 58 131.5t152 55.5v91q0 23 27 23t27 -23v-91q122 -9 173 -66q11 -12 11 -26q0 -24 -25 -24q-17 0 -36 23q-50 60 -153 60q-67 0 -107 -25q-61 -39 -61 -107
q0 -28 10 -49.5t25 -35.5t41.5 -25.5t49 -17.5t58.5 -14q115 -24 167.5 -68t52.5 -121q0 -82 -58 -135t-157 -60v-91q0 -22 -27 -22q-28 0 -28 22v91q-142 8 -200 82q-10 13 -10 24t7 18.5t19 7.5q16 0 35 -23q61 -75 176 -75z" />
    <glyph glyph-name="percent" unicode="%" horiz-adv-x="788" 
d="M33 535q0 81 45.5 131t115.5 50q73 0 117 -45.5t44 -127.5q0 -81 -45 -130.5t-116 -49.5q-74 0 -117.5 44.5t-43.5 127.5zM100 535q0 -142 94 -142q44 0 69 39t25 111q0 143 -94 143q-44 0 -69 -39.5t-25 -111.5zM755 174q0 -81 -45.5 -131t-115.5 -50q-74 0 -118 45.5
t-44 127.5q0 81 45.5 130t116.5 49q73 0 117 -44t44 -127zM688 173q0 143 -94 143q-44 0 -69 -39t-25 -111q0 -143 94 -143q44 0 69 39.5t25 110.5zM653 671l-482 -668q-10 -15 -24 -15q-11 0 -19 5.5t-8 14.5q0 8 7 19l482 668q10 15 24 15q11 0 19 -5.5t8 -14.5
q0 -8 -7 -19z" />
    <glyph glyph-name="ampersand" unicode="&#x26;" horiz-adv-x="699" 
d="M64 180q0 65 40 111t118 82q-61 62 -83 101.5t-22 85.5q0 70 59 115t147 45q75 0 134.5 -35.5t59.5 -106.5q0 -52 -29 -92.5t-98 -74.5l-86 -43l221 -230q31 50 31 125q0 10 -2 24q-1 8 -1 13q0 12 7.5 20t20.5 8q32 0 32 -54q0 -97 -53 -172l56 -58q13 -13 13 -23
q0 -21 -25 -21q-17 0 -34 19l-44 45q-43 -39 -102 -57.5t-115 -18.5q-119 0 -182 51t-63 141zM315 22q113 0 180 74l-246 251q-102 -52 -102 -155q0 -82 49 -126t119 -44zM195 566q0 -43 19.5 -80.5t66.5 -91.5q41 20 75 40q55 33 72.5 68t17.5 81t-32.5 74t-89.5 28
q-55 0 -92 -31.5t-37 -87.5z" />
    <glyph glyph-name="quotesingle" unicode="'" horiz-adv-x="170" 
d="M85 712q36 0 36 -31q0 -15 -4 -49l-13 -117q-2 -19 -19 -19t-19 19l-14 118q-3 27 -3 47q0 32 36 32z" />
    <glyph glyph-name="parenleft" unicode="(" horiz-adv-x="276" 
d="M58 306q0 136 40 250.5t106 196.5q12 16 25 16q19 0 19 -16q0 -6 -6 -15q-102 -160 -102 -432q0 -273 102 -432q6 -9 6 -16q0 -16 -19 -16q-11 0 -25 16q-146 171 -146 448z" />
    <glyph glyph-name="parenright" unicode=")" horiz-adv-x="276" 
d="M218 305q0 -136 -40 -250.5t-106 -196.5q-12 -16 -25 -16q-19 0 -19 16q0 6 6 15q102 160 102 432q0 273 -102 432q-6 9 -6 16q0 16 19 16q11 0 25 -16q146 -171 146 -448z" />
    <glyph glyph-name="asterisk" unicode="*" horiz-adv-x="331" 
d="M165 720q11 0 18.5 -7t7.5 -19q0 -9 -7.5 -49t-8.5 -56l3 -3q12 5 50 27t52 22q13 0 20.5 -8t7.5 -19q0 -23 -30 -26q-83 -12 -94 -15l-1 -4q10 -13 38.5 -39t34.5 -35q7 -10 7 -20q0 -23 -26 -23q-13 0 -22 13q-7 10 -23.5 45t-24.5 48h-4q-9 -14 -25.5 -48.5
t-23.5 -44.5q-9 -13 -22 -13q-11 0 -18.5 6.5t-7.5 16.5t7 20q6 9 34.5 35t38.5 39l-1 4q-15 4 -94 15q-29 3 -29 26q0 11 7.5 19t20.5 8t50.5 -22t50.5 -27l3 3q-1 16 -8.5 56t-7.5 49q0 26 27 26z" />
    <glyph glyph-name="plus" unicode="+" horiz-adv-x="569" 
d="M262 122v183h-190q-24 0 -24 22t24 22h190v182q0 25 22 25q23 0 23 -25v-182h191q24 0 24 -22t-24 -22h-191v-183q0 -25 -23 -25q-22 0 -22 25z" />
    <glyph glyph-name="comma" unicode="," horiz-adv-x="183" 
d="M127 42q0 -62 -43 -166q-6 -13 -19 -13q-16 0 -16 15q0 4 3 30q5 50 5 91q0 7 -1 21t-1 19q0 40 37 40q35 0 35 -37z" />
    <glyph glyph-name="hyphen" unicode="-" horiz-adv-x="456" 
d="M72 308h311q25 0 25 -23q0 -10 -6.5 -17t-18.5 -7h-311q-24 0 -24 24q0 23 24 23z" />
    <glyph glyph-name="period" unicode="." horiz-adv-x="192" 
d="M96 -7q-24 0 -38 12.5t-14 31.5q0 18 14.5 30t37.5 12q24 0 38 -12t14 -30q0 -19 -14 -31.5t-38 -12.5z" />
    <glyph glyph-name="slash" unicode="/" horiz-adv-x="300" 
d="M309 718l-297 -811q-7 -20 -26 -20q-23 0 -23 19q0 6 3 15l297 811q7 20 26 20q23 0 23 -19q0 -6 -3 -15z" />
    <glyph glyph-name="zero" unicode="0" horiz-adv-x="692" 
d="M52 351q0 164 82.5 266.5t212.5 102.5q134 0 214 -95.5t80 -267.5q0 -163 -83.5 -266t-212.5 -103q-134 0 -213.5 95.5t-79.5 267.5zM142 351q0 -161 52 -244t151 -83q97 0 151.5 88.5t54.5 244.5q0 163 -52.5 245t-151.5 82q-97 0 -151 -87.5t-54 -245.5z" />
    <glyph glyph-name="one" unicode="1" horiz-adv-x="313" 
d="M132 31v631q-44 -14 -96 -14q-26 0 -26 17q0 18 23 19q46 2 100 18q29 8 41 8q40 0 40 -38v-641q0 -15 -11.5 -24t-29.5 -9t-29.5 9t-11.5 24z" />
    <glyph glyph-name="two" unicode="2" horiz-adv-x="566" 
d="M95 70h392q34 0 34 -33t-34 -33h-421q-32 0 -32 35q0 22 16 42q48 61 203 200l74 68t52.5 57.5t42 69t11.5 71.5q0 64 -38.5 101t-110.5 37q-105 0 -161 -76q-21 -28 -38 -28q-25 0 -25 22q0 12 11 28q29 40 86.5 64.5t127.5 24.5q110 0 173 -46.5t63 -128.5
q0 -38 -12.5 -71.5t-44 -69t-58 -59.5t-79.5 -68q-190 -155 -232 -204v-3z" />
    <glyph glyph-name="three" unicode="3" horiz-adv-x="593" 
d="M268 23q84 0 134.5 48.5t50.5 124.5q0 28 -8.5 53.5t-28 51t-60.5 40.5t-98 15h-33q-24 0 -24 19q0 20 24 20h41q168 0 168 151q0 64 -38.5 101.5t-109.5 37.5q-97 0 -155 -72q-23 -27 -37 -27q-11 0 -18 6.5t-7 16.5q0 15 12 28q31 39 86 61t119 22q108 0 171.5 -49.5
t63.5 -126.5q0 -54 -37.5 -99t-113.5 -58v-4q73 -11 122 -56t49 -122q0 -98 -77 -157.5t-197 -59.5q-157 0 -218 77q-13 15 -13 29q0 11 8 18.5t20 7.5q18 0 37 -25q58 -72 167 -72z" />
    <glyph glyph-name="four" unicode="4" horiz-adv-x="610" 
d="M481 172v-141q0 -15 -11.5 -24t-29.5 -9t-29 9t-11 24v141h-339q-35 0 -35 32q0 18 12 36q34 51 106 147l218 289q26 34 64 34q55 0 55 -45v-435h76q32 0 32 -29t-32 -29h-76zM400 230v225q0 134 4 210h-2q-23 -35 -98 -135l-127 -170l-93 -127v-3h316z" />
    <glyph glyph-name="five" unicode="5" horiz-adv-x="579" 
d="M483 640h-333l-30 -259h3q64 57 174 57q115 0 180 -59.5t65 -162.5q0 -101 -75.5 -164.5t-199.5 -63.5q-157 0 -218 77q-13 15 -13 29q0 11 8 18.5t20 7.5q18 0 37 -25q58 -72 167 -72q88 0 137 53.5t49 138.5q0 79 -44 126.5t-125 47.5q-85 0 -157 -53q-13 -9 -27 -9
q-27 0 -24 30l30 306q5 43 47 43h329q35 0 35 -33t-35 -33z" />
    <glyph glyph-name="six" unicode="6" horiz-adv-x="629" 
d="M355 720q131 0 191 -69q12 -13 12 -27q0 -11 -7.5 -18.5t-18.5 -7.5q-19 0 -39 25q-29 35 -61.5 48.5t-78.5 13.5q-105 0 -161 -92t-56 -235v-51h4q25 72 81.5 107.5t127.5 35.5q111 0 174.5 -61.5t63.5 -161.5q0 -104 -76.5 -171.5t-185.5 -67.5q-88 0 -149 42.5
t-91 115.5q-33 77 -33 202q0 163 81.5 267.5t221.5 104.5zM154 212q0 -60 27 -106q47 -83 142 -83q80 0 129 55t49 138q0 90 -42 141.5t-123 51.5q-100 0 -153 -85q-29 -49 -29 -112z" />
    <glyph glyph-name="seven" unicode="7" horiz-adv-x="516" 
d="M448 640h-404q-34 0 -34 32q0 34 35 34h425q36 0 36 -30q0 -19 -14 -38q-191 -276 -278 -608q-8 -32 -42 -32q-39 0 -39 32q0 12 4 26q25 84 59.5 163t80 156t81 130l90.5 131v4z" />
    <glyph glyph-name="eight" unicode="8" horiz-adv-x="631" 
d="M226 376v4q-67 11 -106.5 53.5t-39.5 104.5q0 80 67 131t172 51q109 0 173.5 -47.5t64.5 -131.5q0 -59 -39 -101.5t-106 -57.5v-4q87 -17 132 -65.5t45 -118.5q0 -96 -77 -151t-198 -55q-127 0 -199.5 52t-72.5 148q0 68 51.5 122t132.5 66zM314 22q82 0 135.5 43.5
t53.5 128.5q0 75 -50.5 119.5t-135.5 44.5q-86 0 -137.5 -46t-51.5 -121q0 -86 51.5 -127.5t134.5 -41.5zM162 539q0 -71 44 -109t111 -38q68 0 113 37t45 109q0 78 -45 112.5t-111 34.5q-65 0 -111 -36t-46 -110z" />
    <glyph glyph-name="nine" unicode="9" horiz-adv-x="625" 
d="M270 23q105 0 162.5 92.5t57.5 234.5q0 36 -1 53h-3q-25 -71 -80.5 -106.5t-126.5 -35.5q-109 0 -172 61.5t-63 159.5q0 104 73 171t183 67q89 0 150.5 -42t91.5 -114q31 -74 31 -202q0 -163 -82.5 -268.5t-221.5 -105.5q-59 0 -110.5 18.5t-80.5 51.5q-12 14 -12 27
q0 11 7.5 18t18.5 7q18 0 39 -24q53 -63 139 -63zM471 498q0 60 -27 107q-46 80 -142 80q-79 0 -126 -55t-47 -138q0 -88 41 -139t121 -51q83 0 131.5 56.5t48.5 139.5z" />
    <glyph glyph-name="colon" unicode=":" horiz-adv-x="240" 
d="M120 -7q-24 0 -38 12.5t-14 31.5q0 18 14.5 30t37.5 12q24 0 38 -12t14 -30q0 -19 -14 -31.5t-38 -12.5zM120 319q-24 0 -38 12.5t-14 31.5q0 18 14.5 30t37.5 12q24 0 38 -12t14 -30q0 -19 -14 -31.5t-38 -12.5z" />
    <glyph glyph-name="semicolon" unicode=";" horiz-adv-x="240" 
d="M120 319q-24 0 -38 12.5t-14 31.5q0 18 14.5 30t37.5 12q24 0 38 -12t14 -30q0 -19 -14 -31.5t-38 -12.5zM153 42q0 -62 -43 -166q-6 -13 -19 -13q-16 0 -16 15q0 4 3 30q5 50 5 91q0 7 -1 21t-1 19q0 40 37 40q35 0 35 -37z" />
    <glyph glyph-name="less" unicode="&#x3c;" horiz-adv-x="365" 
d="M308 484l-242 -192l243 -199q11 -9 11 -20q0 -8 -6.5 -14t-15.5 -6q-10 0 -22 10l-248 202q-13 10 -13 24q0 12 13 24l248 202q10 9 22 9q10 0 16 -5.5t6 -13.5q0 -12 -12 -21z" />
    <glyph glyph-name="equal" unicode="=" horiz-adv-x="539" 
d="M72 437h396q24 0 24 -23q0 -9 -6.5 -15.5t-17.5 -6.5h-396q-24 0 -24 22q0 23 24 23zM72 261h396q24 0 24 -23q0 -9 -6.5 -15.5t-17.5 -6.5h-396q-24 0 -24 22q0 23 24 23z" />
    <glyph glyph-name="greater" unicode="&#x3e;" horiz-adv-x="365" 
d="M57 93l242 192l-243 199q-11 9 -11 20q0 8 6.5 14t15.5 6q10 0 22 -10l248 -202q13 -10 13 -24q0 -12 -13 -24l-248 -202q-11 -9 -22 -9q-10 0 -16 5.5t-6 13.5q0 12 12 21z" />
    <glyph glyph-name="question" unicode="?" horiz-adv-x="507" 
d="M222 -7q-23 0 -36.5 12t-13.5 30q0 17 13.5 28.5t36.5 11.5t36.5 -11.5t13.5 -28.5q0 -19 -13.5 -30.5t-36.5 -11.5zM240 720q103 0 168 -45t65 -126q0 -57 -35.5 -103.5t-113.5 -101.5q-47 -33 -66 -59.5t-21 -67.5q-1 -21 -17 -21q-12 0 -17 14q-2 16 -2 30
q0 50 18.5 84.5t68.5 75.5q54 46 76 79.5t22 78.5q0 57 -39.5 92t-108.5 35q-96 0 -153 -76q-22 -28 -39 -28q-24 0 -24 23q0 13 10 27q30 40 86 64.5t122 24.5z" />
    <glyph glyph-name="at" unicode="@" horiz-adv-x="886" 
d="M263 280q0 78 45.5 128t116.5 50q36 0 67.5 -17t45.5 -51h4l2 39q2 22 27 22q28 0 28 -22l-4 -194q-1 -93 61 -93q49 0 72.5 51.5t23.5 126.5q0 148 -83.5 229.5t-215.5 81.5q-131 0 -221.5 -98t-90.5 -249q0 -150 81 -242t216 -92q116 0 192 51q15 9 24 9q19 0 19 -17
q0 -9 -10 -16q-80 -59 -227 -59q-157 0 -258 98t-101 266q0 163 108.5 272.5t267.5 109.5q156 0 256.5 -93t100.5 -247q0 -78 -41 -141.5t-115 -63.5q-37 0 -66.5 18.5t-38.5 61.5h-4q-34 -86 -132 -86q-70 0 -110 46.5t-40 120.5zM322 283q0 -67 27.5 -103.5t75.5 -36.5
q53 0 84 40t31 104q0 68 -28 105.5t-83 37.5q-47 0 -77 -41t-30 -106z" />
    <glyph glyph-name="A" unicode="A" horiz-adv-x="642" 
d="M544 26l-68 192h-333q-1 -3 -76 -196q-10 -27 -32 -27q-27 0 -27 24q0 11 5 23q207 493 271 632q17 36 62 36q41 0 54 -36l230 -629q4 -11 4 -20q0 -30 -41 -30q-38 0 -49 31zM274 544l-115 -285h304l-140 397h-4z" />
    <glyph glyph-name="B" unicode="B" horiz-adv-x="669" 
d="M176 40h115q110 0 157 23q74 35 74 139q0 83 -50.5 120.5t-170.5 37.5h-125v-320zM176 396h104q104 0 157.5 32.5t53.5 113.5q0 41 -17 68.5t-51 41t-70.5 18t-88.5 4.5q-44 0 -88 -4v-274zM94 649q0 45 48 54q35 7 129 7q302 0 302 -170q0 -62 -44 -104.5t-122 -49.5v-4
q97 -6 147.5 -53.5t50.5 -122.5q0 -138 -134 -183q-58 -19 -184 -19h-153q-40 0 -40 37v608z" />
    <glyph glyph-name="C" unicode="C" horiz-adv-x="680" 
d="M378 24q123 0 199 93q19 24 34 24q22 0 24 -21q0 -11 -11 -25q-36 -49 -101 -78t-152 -29q-150 0 -238.5 97.5t-88.5 270.5q0 165 93.5 264.5t238.5 99.5q92 0 156 -29t93 -71q9 -12 9 -25q0 -11 -8 -18.5t-21 -7.5q-19 0 -40 27q-66 88 -187 88q-113 0 -178.5 -89.5
t-65.5 -238.5q0 -152 66 -242t178 -90z" />
    <glyph glyph-name="D" unicode="D" horiz-adv-x="723" 
d="M176 40h111q302 0 302 318q0 207 -124 279q-63 37 -174 37q-77 0 -115 -3v-631zM283 4h-149q-40 0 -40 37v609q0 46 48 54q46 6 155 6q182 0 282.5 -89.5t100.5 -261.5q0 -170 -105 -262.5t-292 -92.5z" />
    <glyph glyph-name="E" unicode="E" horiz-adv-x="615" 
d="M94 41v609q0 56 63 56h384q24 0 24 -21q0 -20 -24 -20h-365v-271h315q24 0 24 -21q0 -20 -24 -20h-315v-308h375q24 0 24 -20q0 -21 -24 -21h-417q-40 0 -40 37z" />
    <glyph glyph-name="F" unicode="F" horiz-adv-x="557" 
d="M94 31v619q0 56 63 56h363q24 0 24 -21q0 -20 -24 -20h-344v-279h271q24 0 24 -20q0 -21 -24 -21h-271v-314q0 -15 -12 -24t-30 -9t-29 9t-11 24z" />
    <glyph glyph-name="G" unicode="G" horiz-adv-x="743" 
d="M377 24q112 0 170.5 66.5t58.5 194.5v7h-174q-24 0 -24 21q0 20 24 20h224q31 0 31 -26v-8q0 -148 -81.5 -229.5t-228.5 -81.5q-151 0 -242 97.5t-91 268.5q0 167 95 266.5t246 99.5q91 0 158 -31t97 -74q9 -12 9 -24q0 -10 -8 -18t-21 -8q-20 0 -38 26q-64 93 -195 93
q-117 0 -185 -90t-68 -239q0 -152 66.5 -241.5t176.5 -89.5z" />
    <glyph glyph-name="H" unicode="H" horiz-adv-x="735" 
d="M642 677v-646q0 -15 -11.5 -24t-29.5 -9t-29.5 9t-11.5 24v314h-384v-314q0 -15 -12 -24t-30 -9t-29 9t-11 24v646q0 15 11.5 24t29.5 9t29.5 -9t11.5 -24v-291h384v291q0 15 11.5 24t29.5 9t29.5 -9t11.5 -24z" />
    <glyph glyph-name="I" unicode="I" horiz-adv-x="270" 
d="M176 677v-646q0 -15 -12 -24t-30 -9t-29 9t-11 24v646q0 15 11.5 24t29.5 9t29.5 -9t11.5 -24z" />
    <glyph glyph-name="J" unicode="J" horiz-adv-x="565" 
d="M401 209v468q0 15 11.5 24t29.5 9t29.5 -9t11.5 -24v-452q0 -110 -62.5 -173.5t-180.5 -63.5q-75 0 -129 26.5t-81 66.5q-8 12 -8 23t7.5 18t19.5 7q20 0 38 -27q55 -78 154 -78q75 0 117.5 47.5t42.5 137.5z" />
    <glyph glyph-name="K" unicode="K" horiz-adv-x="645" 
d="M176 677v-303h3q180 143 355 316q20 20 37 20q10 0 17.5 -6t7.5 -17q0 -12 -14 -26q-61 -62 -338 -281l352 -320q18 -18 18 -32t-10.5 -22t-28.5 -8q-14 0 -26 5t-18.5 10t-19.5 17l-332 310h-3v-309q0 -15 -12 -24t-30 -9t-29 9t-11 24v646q0 15 11.5 24t29.5 9t29.5 -9
t11.5 -24z" />
    <glyph glyph-name="L" unicode="L" horiz-adv-x="566" 
d="M512 4h-378q-40 0 -40 37v636q0 15 11.5 24t29.5 9t29.5 -9t11.5 -24v-632h336q24 0 24 -20q0 -21 -24 -21z" />
    <glyph glyph-name="M" unicode="M" horiz-adv-x="859" 
d="M94 25v640q0 21 16 33t42 12q41 0 60 -34q45 -81 221 -462h2l148 303l73 156q18 37 59 37q23 0 37 -10.5t14 -29.5v-639q0 -15 -11.5 -24t-29.5 -9t-29.5 9t-11.5 24v423q0 158 3 186h-4q-26 -67 -58 -133q-101 -214 -166 -335q-16 -31 -48 -31q-33 0 -47 28l-177 371
q-23 48 -44 100h-3q3 -83 3 -184v-431q0 -27 -25 -27q-24 0 -24 27z" />
    <glyph glyph-name="N" unicode="N" horiz-adv-x="747" 
d="M94 25v644q0 19 14 30t39 11q36 0 59 -32q96 -134 334 -497q48 -75 64 -104h4q-3 79 -3 167v439q0 27 25 27q24 0 24 -27v-644q0 -41 -50 -41q-42 0 -64 35l-334 499q-48 72 -63 101h-3q3 -81 3 -169v-439q0 -27 -25 -27q-24 0 -24 27z" />
    <glyph glyph-name="O" unicode="O" 
d="M44 354q0 166 95 266t245 100q151 0 245.5 -97t94.5 -269q0 -166 -96 -266t-244 -100q-153 0 -246.5 97t-93.5 269zM134 354q0 -157 66.5 -243.5t183.5 -86.5q115 0 182.5 88.5t67.5 241.5q0 156 -67.5 243t-182.5 87q-117 0 -183.5 -88.5t-66.5 -241.5z" />
    <glyph glyph-name="P" unicode="P" horiz-adv-x="618" 
d="M176 330h118q106 0 158 42t52 133q0 169 -210 169q-56 0 -118 -4v-340zM94 31v618q0 46 48 54q48 7 156 7q132 0 211 -50t79 -155q0 -146 -140 -192q-57 -19 -156 -19h-116v-263q0 -15 -12 -24t-30 -9t-29 9t-11 24z" />
    <glyph glyph-name="Q" unicode="Q" 
d="M44 354q0 166 95 266t245 100q151 0 245.5 -97.5t94.5 -268.5q0 -155 -82.5 -251t-216.5 -109v-3l236 -86q34 -11 34 -30q0 -28 -32 -28q-20 0 -44 12l-270 131q-139 11 -222 107t-83 257zM134 354q0 -157 66.5 -243.5t183.5 -86.5q115 0 182.5 88.5t67.5 241.5
q0 156 -67.5 243t-182.5 87q-117 0 -183.5 -88.5t-66.5 -241.5z" />
    <glyph glyph-name="R" unicode="R" horiz-adv-x="658" 
d="M290 674q-56 0 -114 -4v-322q43 -2 124 -2q206 0 206 170q0 158 -216 158zM294 710q62 0 112.5 -9.5t93 -31t66.5 -60.5t24 -92q0 -162 -187 -196l185 -272q8 -13 8 -22q0 -29 -40 -29q-31 0 -52 30q-79 117 -176 283q-11 -1 -32 -1q-68 0 -120 1v-280q0 -15 -12 -24
t-30 -9t-29 9t-11 24v618q0 47 48 54t152 7z" />
    <glyph glyph-name="S" unicode="S" horiz-adv-x="596" 
d="M295 26q77 0 130.5 40t53.5 109q0 57 -43 91.5t-144 55.5q-118 24 -178 67.5t-60 133.5q0 92 70.5 144.5t179.5 52.5q67 0 125 -18.5t86 -52.5q13 -15 13 -27q0 -25 -26 -25q-18 0 -38 24q-51 64 -163 64q-72 0 -116 -30q-61 -40 -61 -110q0 -29 10.5 -52t26.5 -37.5
t43.5 -27t52 -19t61.5 -14.5q122 -26 178 -72t56 -126q0 -93 -71.5 -150t-189.5 -57q-81 0 -144 24.5t-93 63.5q-10 14 -10 26q0 11 7.5 18.5t19.5 7.5q16 0 36 -24q63 -80 188 -80z" />
    <glyph glyph-name="T" unicode="T" horiz-adv-x="561" 
d="M23 706h515q23 0 23 -21q0 -20 -23 -20h-217v-634q0 -15 -11.5 -24t-30.5 -9q-18 0 -29 9t-11 24v634h-216q-23 0 -23 20q0 21 23 21z" />
    <glyph glyph-name="U" unicode="U" horiz-adv-x="722" 
d="M82 277v400q0 15 11.5 24t29.5 9t29.5 -9t11.5 -24v-420q0 -107 48.5 -170.5t151.5 -63.5q90 0 146 59t56 171v426q0 31 37 31t37 -31v-410q0 -122 -69.5 -201.5t-206.5 -79.5q-140 0 -211 74t-71 215z" />
    <glyph glyph-name="V" unicode="V" horiz-adv-x="615" 
d="M92 678l181 -533l32 -95h4l159 414q79 211 81 217q11 29 34 29q12 0 20.5 -6.5t8.5 -17.5q0 -9 -6 -24q-136 -351 -264 -633q-15 -34 -57 -34t-55 34l-221 623q-5 15 -5 26q0 14 11.5 23t29.5 9q36 0 47 -32z" />
    <glyph glyph-name="W" unicode="W" horiz-adv-x="990" 
d="M502 706q45 0 55 -43q100 -419 154 -612h4q97 303 151 490q2 6 19.5 68t20.5 72q10 29 34 29q12 0 21 -6.5t9 -17.5q0 -8 -5 -26l-53 -163q-108 -320 -163 -464q-14 -38 -57 -38q-44 0 -57 41q-85 258 -152 592h-4q-10 -48 -40 -157q-69 -247 -136 -437q-14 -39 -59 -39
q-48 0 -59 41l-162 620q-3 15 -3 21q0 15 11 24t30 9q39 0 47 -32l154 -627h4q38 115 95.5 313.5t83.5 299.5q10 42 57 42z" />
    <glyph glyph-name="X" unicode="X" horiz-adv-x="606" 
d="M266 342l-231 317q-8 13 -8 21q0 12 11.5 21t29.5 9q31 0 55 -33l198 -278l75 98q48 62 135 190q16 23 35 23q28 0 28 -22q0 -11 -10 -25q-77 -105 -239 -294l235 -319q9 -12 9 -22q0 -12 -11.5 -21t-29.5 -9q-31 0 -55 33l-203 282l-76 -101l-138 -190q-16 -24 -35 -24
q-27 0 -27 23q0 11 10 24q89 120 242 297z" />
    <glyph glyph-name="Y" unicode="Y" horiz-adv-x="567" 
d="M36 710q34 0 53 -32l211 -352l129 214l78 143q14 27 36 27q10 0 18.5 -5.5t8.5 -16.5q0 -9 -9 -24q-78 -135 -242 -374v-259q0 -15 -12 -24t-30 -9t-29 9t-11 24v257l-231 370q-8 13 -8 23q0 13 10.5 21t27.5 8z" />
    <glyph glyph-name="Z" unicode="Z" horiz-adv-x="591" 
d="M26 33q0 12 12 31l425 596v4h-395q-24 0 -24 21t24 21h449q41 0 41 -29q0 -13 -12 -31l-425 -596v-4h404q24 0 24 -21t-24 -21h-467q-32 0 -32 29z" />
    <glyph glyph-name="bracketleft" unicode="[" horiz-adv-x="322" 
d="M153 707v-803h118q23 0 23 -19t-23 -19h-150q-43 0 -43 40v793q0 46 50 46h142q24 0 24 -19t-24 -19h-117z" />
    <glyph glyph-name="backslash" unicode="\" horiz-adv-x="335" 
d="M307 -93l-296 808q-4 11 -4 18q0 19 23 19q20 0 27 -20l297 -811q3 -9 3 -15q0 -19 -23 -19q-20 0 -27 20z" />
    <glyph glyph-name="bracketright" unicode="]" horiz-adv-x="322" 
d="M168 -96v803h-117q-23 0 -23 19t23 19h150q43 0 43 -40v-793q0 -46 -50 -46h-142q-24 0 -24 19t24 19h116z" />
    <glyph glyph-name="asciicircum" unicode="^" horiz-adv-x="504" 
d="M420 470l-170 173l-166 -173q-9 -9 -18 -9q-18 0 -18 15q0 7 7 17l163 198q15 19 37 19q23 0 37 -19l157 -198q8 -10 8 -17q0 -15 -18 -15q-10 0 -19 9z" />
    <glyph glyph-name="underscore" unicode="_" horiz-adv-x="559" 
d="M52 -24h455q20 0 20 -18t-20 -18h-455q-19 0 -19 18t19 18z" />
    <glyph glyph-name="grave" unicode="`" horiz-adv-x="499" 
d="M315 580l-127 92q-19 15 -19 29t10.5 22t23.5 8q22 0 37 -18l101 -112q7 -7 7 -14q0 -13 -16 -13q-8 0 -17 6z" />
    <glyph glyph-name="a" unicode="a" horiz-adv-x="609" 
d="M455 476q3 30 38 30q16 0 27 -8t11 -23v-446q0 -14 -11 -22.5t-28 -8.5q-36 0 -38 31l-2 82h-4q-26 -63 -75 -93.5t-111 -30.5q-109 0 -168.5 71.5t-59.5 187.5q0 120 69 195t178 75q64 0 106.5 -31.5t61.5 -79.5h4zM287 479q-76 0 -122.5 -64.5t-46.5 -167.5
q0 -105 42.5 -162.5t116.5 -57.5q82 0 129.5 63.5t47.5 159.5q0 102 -42 165.5t-125 63.5z" />
    <glyph glyph-name="b" unicode="b" horiz-adv-x="623" 
d="M330 25q79 0 127 63t48 165q0 104 -45.5 165t-122.5 61q-86 0 -134 -64.5t-48 -161.5q0 -99 46 -163.5t129 -64.5zM158 720v-325h4q53 121 190 121q111 0 174 -73t63 -188q0 -119 -70.5 -193t-181.5 -74q-128 0 -177 117h-4l-2 -76q-2 -31 -37 -31q-17 0 -28 8t-11 23
v691q0 15 11.5 23.5t28.5 8.5t28.5 -8.5t11.5 -23.5z" />
    <glyph glyph-name="c" unicode="c" horiz-adv-x="512" 
d="M430 84q17 18 29 18q8 0 14 -5.5t6 -13.5q0 -9 -9 -19q-66 -76 -187 -76q-116 0 -182.5 70.5t-66.5 191.5q0 114 70 190t184 76q128 0 182 -70q10 -11 10 -22q0 -10 -7 -17.5t-20 -7.5q-18 0 -36 24q-43 60 -127 60q-78 0 -125 -65t-47 -165q0 -102 45 -165.5t127 -63.5
q83 0 140 60z" />
    <glyph glyph-name="d" unicode="d" horiz-adv-x="623" 
d="M292 479q-79 0 -126.5 -63t-47.5 -164q0 -103 45.5 -165t121.5 -62q86 0 134.5 65t48.5 162q0 99 -46 163t-130 64zM468 29l-2 82h-4q-54 -123 -192 -123q-110 0 -173 73.5t-63 188.5q0 119 69.5 192.5t181.5 73.5q68 0 112.5 -32t62.5 -79h5v315q0 15 11.5 23.5
t28.5 8.5t28.5 -8.5t11.5 -23.5v-691q0 -14 -11 -22.5t-28 -8.5q-36 0 -38 31z" />
    <glyph glyph-name="e" unicode="e" horiz-adv-x="549" 
d="M288 24q91 0 150 60q16 17 28 17q20 0 20 -19q0 -8 -8 -19q-68 -75 -199 -75q-111 0 -178 69t-67 190q0 117 67.5 193t182.5 76q96 0 158.5 -58t62.5 -166v-9q0 -35 -38 -35h-350v-8q0 -95 45 -155.5t126 -60.5zM119 285h309v15q0 89 -39.5 136t-107.5 47q-70 0 -113 -51
t-49 -147z" />
    <glyph glyph-name="f" unicode="f" horiz-adv-x="290" 
d="M91 30v428l-52 2q-23 0 -23 18t23 18l52 1q3 134 64 197.5t146 63.5q55 0 87 -13q25 -12 25 -27q0 -24 -24 -24q-15 0 -30 9q-32 18 -62 18q-126 0 -126 -181v-42h99q24 0 24 -20t-24 -20h-99v-428q0 -15 -12 -23.5t-29 -8.5t-28 8.5t-11 23.5z" />
    <glyph glyph-name="g" unicode="g" horiz-adv-x="611" 
d="M288 479q-77 0 -123.5 -63.5t-46.5 -165.5q0 -107 43 -165.5t118 -58.5q81 0 129.5 64.5t48.5 159.5q0 100 -43.5 164.5t-125.5 64.5zM457 407l1 69q0 30 37 30q39 0 39 -30v-430q0 -131 -72.5 -202.5t-200.5 -71.5q-60 0 -109 15.5t-76 37.5q-22 18 -22 34q0 9 7.5 15.5
t17.5 6.5q13 0 25 -11q62 -62 159 -62q91 0 141 54t50 153v94h-4q-26 -61 -75.5 -91t-107.5 -30q-110 0 -171.5 72t-61.5 189q0 119 69 193t180 74q63 0 107 -31.5t63 -77.5h4z" />
    <glyph glyph-name="h" unicode="h" horiz-adv-x="592" 
d="M78 30v690q0 32 40 32q17 0 28.5 -8.5t11.5 -23.5v-309h5q21 51 65 78t101 27q191 0 191 -202v-284q0 -32 -40 -32q-17 0 -28.5 8.5t-11.5 23.5v292q0 156 -129 156q-68 0 -110.5 -52.5t-42.5 -136.5v-259q0 -15 -11.5 -23.5t-28.5 -8.5t-28.5 8.5t-11.5 23.5z" />
    <glyph glyph-name="i" unicode="i" horiz-adv-x="236" 
d="M78 30v444q0 15 11.5 23.5t29.5 8.5q17 0 28 -8.5t11 -23.5v-444q0 -15 -11 -23.5t-28 -8.5t-29 8.5t-12 23.5zM118 642q-23 0 -37 11.5t-14 29.5q0 17 14 28.5t37 11.5t37 -11.5t14 -28.5q0 -18 -14 -29.5t-37 -11.5z" />
    <glyph glyph-name="j" unicode="j" horiz-adv-x="236" 
d="M118 642q-23 0 -37 11.5t-14 29.5q0 17 14 28.5t37 11.5t37 -11.5t14 -28.5q0 -18 -14 -29.5t-37 -11.5zM78 -64v538q0 15 11.5 23.5t28.5 8.5t28.5 -8.5t11.5 -23.5v-429q0 -103 -18 -157q-25 -73 -84 -98q-29 -13 -63 -13q-16 0 -27 3q-16 5 -16 18q0 17 18 17
q4 0 13 -1.5t15 -1.5q22 0 38 9q44 25 44 115z" />
    <glyph glyph-name="k" unicode="k" horiz-adv-x="499" 
d="M73 30v690q0 32 40 32q17 0 28.5 -8.5t11.5 -23.5v-436h2q6 4 51 37t54 41l152 122q23 22 39 22q9 0 16 -5.5t7 -15.5q0 -15 -24 -34q-84 -63 -233 -162l256 -240q13 -13 13 -23q0 -12 -10.5 -20t-27.5 -8q-26 0 -47 21l-246 237h-2v-226q0 -15 -11.5 -23.5t-28.5 -8.5
t-28.5 8.5t-11.5 23.5z" />
    <glyph glyph-name="l" unicode="l" horiz-adv-x="236" 
d="M78 30v690q0 15 11.5 23.5t28.5 8.5t28.5 -8.5t11.5 -23.5v-690q0 -15 -11.5 -23.5t-28.5 -8.5t-28.5 8.5t-11.5 23.5z" />
    <glyph glyph-name="m" unicode="m" horiz-adv-x="874" 
d="M802 329v-299q0 -32 -40 -32q-17 0 -28.5 8.5t-11.5 23.5v300q0 68 -23.5 107.5t-85.5 39.5q-59 0 -96 -45.5t-37 -124.5v-277q0 -15 -11 -23.5t-28 -8.5t-29 8.5t-12 23.5v300q0 68 -22.5 107.5t-83.5 39.5q-59 0 -97.5 -50t-38.5 -132v-265q0 -15 -11.5 -23.5
t-28.5 -8.5t-28.5 8.5t-11.5 23.5v446q0 30 39 30q37 0 37 -30l1 -65h4q17 51 59 78t95 27q60 0 101.5 -28t53.5 -77h5q18 51 59 78t96 27q174 0 174 -187z" />
    <glyph glyph-name="n" unicode="n" horiz-adv-x="592" 
d="M78 30v446q0 30 39 30q37 0 37 -30l1 -68h5q21 53 66 80.5t103 27.5q191 0 191 -202v-284q0 -15 -11.5 -23.5t-28.5 -8.5t-28.5 8.5t-11.5 23.5v292q0 156 -129 156q-68 0 -110.5 -52.5t-42.5 -136.5v-259q0 -15 -11.5 -23.5t-28.5 -8.5t-28.5 8.5t-11.5 23.5z" />
    <glyph glyph-name="o" unicode="o" horiz-adv-x="581" 
d="M34 249q0 120 72.5 193.5t183.5 73.5q115 0 186 -70t71 -192q0 -120 -72 -193t-185 -73q-114 0 -185 70t-71 191zM120 249q0 -112 46.5 -170t123.5 -58q76 0 123.5 62.5t47.5 170.5q0 113 -47 171t-124 58q-76 0 -123 -63t-47 -171z" />
    <glyph glyph-name="p" unicode="p" horiz-adv-x="623" 
d="M78 -186v661q0 15 11 23t28 8q16 0 26.5 -8t10.5 -23l1 -83h4q54 124 193 124q111 0 174 -73t63 -188q0 -119 -70 -193t-182 -74q-67 0 -110.5 32t-64.5 79h-4v-285q0 -15 -11.5 -23.5t-28.5 -8.5t-28.5 8.5t-11.5 23.5zM330 25q80 0 127.5 63t47.5 165q0 104 -45.5 165
t-122.5 61q-86 0 -134 -65t-48 -161q0 -99 45.5 -163.5t129.5 -64.5z" />
    <glyph glyph-name="q" unicode="q" horiz-adv-x="624" 
d="M293 479q-80 0 -127.5 -62.5t-47.5 -164.5q0 -104 45.5 -165.5t121.5 -61.5q86 0 134.5 65t48.5 162q0 99 -46 163t-129 64zM465 -186v296h-5q-52 -122 -189 -122q-111 0 -174 73.5t-63 188.5q0 119 70 192.5t182 73.5q126 0 176 -115h5l1 74q0 31 38 31q17 0 28 -8
t11 -22v-662q0 -15 -11.5 -23.5t-28.5 -8.5t-28.5 8.5t-11.5 23.5z" />
    <glyph glyph-name="r" unicode="r" horiz-adv-x="412" 
d="M154 476l1 -72h3q23 57 67 84.5t92 27.5q39 0 66 -11q26 -10 26 -30q0 -13 -8 -21t-20 -8q-11 0 -34 10q-24 11 -53 11q-73 0 -111 -68q-25 -44 -25 -111v-258q0 -15 -11.5 -23.5t-28.5 -8.5t-28.5 8.5t-11.5 23.5v446q0 30 39 30q37 0 37 -30z" />
    <glyph glyph-name="s" unicode="s" horiz-adv-x="474" 
d="M230 25q57 0 95 27t38 72q0 38 -29 59t-107 34q-90 15 -137.5 49.5t-47.5 98.5q0 68 55 108.5t140 40.5q111 0 164 -51q13 -12 13 -24q0 -23 -25 -23q-18 0 -37 20q-42 43 -118 43q-49 0 -81 -20q-45 -26 -45 -75q0 -44 35 -64t106 -33q97 -18 141 -51.5t44 -94.5
q0 -65 -57 -108t-149 -43q-123 0 -182 59q-12 12 -12 23t7 17.5t18 6.5q18 0 38 -20q49 -51 133 -51z" />
    <glyph glyph-name="t" unicode="t" horiz-adv-x="408" 
d="M347 458h-167v-323q0 -110 87 -110q35 0 63 12q23 10 30 10q19 0 19 -17q0 -11 -21 -22q-42 -20 -103 -20q-155 0 -155 158v312l-63 1q-23 0 -23 19q0 18 23 18l64 1l2 126q0 15 10.5 24t28.5 9q38 0 38 -31v-127h167q24 0 24 -20t-24 -20z" />
    <glyph glyph-name="u" unicode="u" horiz-adv-x="588" 
d="M510 474v-445q0 -15 -11 -23t-28 -8q-16 0 -26.5 8t-10.5 23l-1 69h-5q-21 -53 -66.5 -81.5t-102.5 -28.5q-191 0 -191 203v283q0 15 11.5 23.5t28.5 8.5t28.5 -8.5t11.5 -23.5v-292q0 -156 129 -156q67 0 110 53t43 136v259q0 15 11.5 23.5t28.5 8.5t28.5 -8.5
t11.5 -23.5z" />
    <glyph glyph-name="v" unicode="v" horiz-adv-x="482" 
d="M94 480l120 -340q25 -72 33 -98h4q88 216 108 269l66 172q9 23 30 23q27 0 27 -21q0 -10 -10 -36q-92 -228 -194 -425q-16 -30 -47 -30q-38 0 -51 32l-165 422q-5 11 -5 25q0 16 12 24.5t30 8.5q32 0 42 -26z" />
    <glyph glyph-name="w" unicode="w" horiz-adv-x="761" 
d="M533 -6q-39 0 -51 37q-62 184 -101 370h-4q-57 -209 -128 -375q-13 -32 -52 -32t-51 37l-127 417q-5 17 -5 25q0 33 41 33q35 0 41 -26l93 -349q0 -1 12 -43.5t13 -48.5h3q77 206 136 423q12 42 44 42q34 0 40 -27q60 -248 115 -438h3q32 94 74 235l61 205q10 27 32 27
q26 0 26 -22q0 -12 -9 -37q-93 -283 -153 -420q-16 -33 -53 -33z" />
    <glyph glyph-name="x" unicode="x" horiz-adv-x="484" 
d="M282 264l170 -207q14 -16 14 -30q0 -13 -10.5 -21t-27.5 -8q-30 0 -52 29l-148 185l-43 -51q-68 -81 -109 -134q-23 -29 -39 -29q-9 0 -16 5.5t-7 14.5q0 12 20 36l171 186l-165 208q-13 16 -13 28q0 13 11.5 21.5t28.5 8.5q24 0 49 -30l144 -183l41 49q56 65 106 134
q22 32 39 32q24 0 24 -19q0 -12 -20 -37q-68 -82 -168 -188z" />
    <glyph glyph-name="y" unicode="y" horiz-adv-x="490" 
d="M95 480l126 -327l36 -99h3l34 80q58 135 94 232l43 116q10 24 30 24q29 0 29 -22q0 -11 -11 -36l-163 -358q-94 -202 -135 -278q-18 -35 -40 -35q-10 0 -17.5 6t-7.5 17q0 12 12 29q50 71 89 146l-19 41l-182 432q-6 16 -6 25q0 16 12 24.5t30 8.5q33 0 43 -26z" />
    <glyph glyph-name="z" unicode="z" horiz-adv-x="477" 
d="M43 67l310 388v4h-288q-23 0 -23 20t23 20h346q34 0 34 -27q0 -16 -14 -35l-312 -389v-4h298q24 0 24 -19q0 -21 -24 -21h-355q-32 0 -32 30q0 17 13 33z" />
    <glyph glyph-name="braceleft" unicode="{" horiz-adv-x="346" 
d="M28 306q0 15 14 18q25 7 36 15q23 16 30 40t7 62v146q0 70 37.5 114t115.5 44h24q26 0 26 -17q0 -18 -22 -18h-16q-45 0 -67 -23t-22 -81v-141q0 -129 -99 -156v-6q99 -24 99 -156v-142q0 -58 22 -81.5t67 -23.5h16q22 0 22 -17t-26 -17h-24q-78 0 -115.5 44t-37.5 114
v147q0 39 -6.5 62.5t-29.5 39.5q-10 8 -37 15q-14 4 -14 18z" />
    <glyph glyph-name="bar" unicode="|" horiz-adv-x="247" 
d="M149 748v-915q0 -21 -26 -21q-25 0 -25 21v915q0 22 25 22q26 0 26 -22z" />
    <glyph glyph-name="braceright" unicode="}" horiz-adv-x="346" 
d="M318 306q0 -14 -14 -18q-27 -7 -37 -15q-23 -16 -29.5 -39.5t-6.5 -62.5v-147q0 -70 -37.5 -114t-115.5 -44h-24q-26 0 -26 17t22 17h16q45 0 67 23.5t22 81.5v142q0 131 99 156v6q-52 13 -75.5 51t-23.5 105v142q0 57 -22 80t-67 23h-16q-22 0 -22 17q0 18 26 18h24
q78 0 115.5 -44t37.5 -114v-146q0 -38 7 -62t30 -40q11 -8 36 -15q14 -3 14 -18z" />
    <glyph glyph-name="asciitilde" unicode="~" horiz-adv-x="532" 
d="M479 383q-38 -87 -121 -87q-49 0 -105 35q-58 36 -91 36q-51 0 -77 -55q-7 -15 -20 -15q-17 0 -17 16q0 7 5 20q37 87 122 87q51 0 109 -37q55 -34 87 -34q51 0 77 55q7 15 19 15q18 0 18 -16q0 -7 -6 -20z" />
    <glyph glyph-name="uni00A0" unicode="&#xa0;" horiz-adv-x="220" 
 />
    <glyph glyph-name="exclamdown" unicode="&#xa1;" horiz-adv-x="275" 
d="M137 -222q-19 0 -31 10t-12 28q0 17 4 77l21 385q1 18 19 18q17 0 18 -18l21 -384q3 -45 3 -78q0 -17 -11.5 -27.5t-31.5 -10.5zM138 499q22 0 35.5 -12t13.5 -30q0 -17 -13.5 -28.5t-35.5 -11.5q-23 0 -36.5 11.5t-13.5 28.5q0 19 13.5 30.5t36.5 11.5z" />
    <glyph glyph-name="cent" unicode="&#xa2;" horiz-adv-x="552" 
d="M44 252q0 108 63 182.5t169 81.5v87q0 21 26 21q25 0 25 -21v-87q106 -9 153 -69q9 -12 9 -22t-7 -17.5t-20 -7.5q-18 0 -36 24q-43 61 -126 61q-79 0 -125.5 -65t-46.5 -165q0 -102 44.5 -166t126.5 -64q85 0 140 58q17 18 29 18q8 0 14 -5.5t6 -13.5q0 -10 -9 -19
q-55 -63 -157 -71v-88q0 -21 -26 -21t-26 21v87q-107 6 -166.5 76.5t-59.5 184.5z" />
    <glyph glyph-name="sterling" unicode="&#xa3;" horiz-adv-x="595" 
d="M397 330h-192q2 -28 2 -43q0 -108 -43 -225h360q31 0 31 -29t-31 -29h-463q-31 0 -31 29t31 29h60q27 76 27 150q0 40 -20 118h-62q-21 0 -21 21t21 21h51q-17 79 -17 133q0 100 67.5 157.5t171.5 57.5q60 0 113.5 -17.5t81.5 -48.5q11 -11 11 -25q0 -25 -25 -25
q-17 0 -38 24q-49 57 -142 57q-74 0 -116 -43.5t-42 -120.5q0 -40 17 -149h198q21 0 21 -21t-21 -21z" />
    <glyph glyph-name="brokenbar" unicode="&#xa6;" horiz-adv-x="247" 
d="M149 748v-345q0 -21 -26 -21q-25 0 -25 21v345q0 22 25 22q26 0 26 -22zM149 178v-345q0 -21 -26 -21q-25 0 -25 21v345q0 22 25 22q26 0 26 -22z" />
    <glyph glyph-name="section" unicode="&#xa7;" horiz-adv-x="555" 
d="M512 271q0 -55 -36 -97t-99 -63q95 -42 95 -131q0 -74 -61 -117.5t-151 -43.5q-58 0 -108.5 15.5t-75.5 40.5q-14 14 -14 27q0 23 26 23q18 0 40 -23q45 -49 134 -49q62 0 102.5 28.5t40.5 79.5q0 46 -37 71.5t-111 43.5q-113 28 -163 70.5t-50 120.5q0 56 34.5 98
t93.5 62q-89 45 -89 132q0 74 58 117.5t147 43.5q56 0 104.5 -16t74.5 -41q14 -12 14 -25q0 -24 -25 -24q-19 0 -41 23q-44 49 -129 49q-59 0 -98.5 -28.5t-39.5 -79.5q0 -49 37.5 -74t110.5 -44q119 -29 167.5 -70t48.5 -119zM270 394q-28 7 -59 17q-46 -12 -74.5 -46
t-28.5 -82q0 -54 41 -86.5t134 -54.5l53 -15q49 12 78.5 45.5t29.5 82.5q0 52 -39 84t-135 55z" />
    <glyph glyph-name="dieresis" unicode="&#xa8;" horiz-adv-x="436" 
d="M108 601q-22 0 -34.5 10.5t-12.5 26.5t12.5 26t34.5 10q21 0 33.5 -10.5t12.5 -25.5q0 -16 -12.5 -26.5t-33.5 -10.5zM324 601q-21 0 -34 10.5t-13 26.5q0 15 13 25.5t34 10.5t33.5 -10.5t12.5 -25.5q0 -16 -12.5 -26.5t-33.5 -10.5z" />
    <glyph glyph-name="copyright" unicode="&#xa9;" horiz-adv-x="905" 
d="M456 194q60 0 96 44q11 14 22 14q16 0 16 -13q0 -7 -7 -16q-43 -56 -130 -56q-77 0 -123 48.5t-46 138.5q0 84 48.5 135t122.5 51q91 0 128 -51q6 -7 6 -16q0 -18 -20 -18q-12 0 -23 16q-29 42 -90 42q-53 0 -84 -43.5t-31 -115.5q0 -74 31 -117t84 -43zM136 354
q0 -143 91.5 -237t225.5 -94q132 0 224 94.5t92 236.5q0 144 -91 237.5t-225 93.5q-133 0 -225 -94t-92 -237zM96 354q0 156 104.5 261t252.5 105q149 0 252.5 -104.5t103.5 -261.5q0 -156 -105 -261t-251 -105q-153 0 -255 104t-102 262z" />
    <glyph glyph-name="ordfeminine" unicode="&#xaa;" horiz-adv-x="459" 
d="M342 648l1 36q0 25 29 25q30 0 30 -25v-313q0 -24 -31 -24q-27 0 -29 24l-1 45h-3q-37 -76 -127 -76q-78 0 -120.5 50.5t-42.5 132.5q0 85 48.5 138t126.5 53q41 0 71.5 -18t44.5 -48h3zM228 682q-52 0 -83.5 -43.5t-31.5 -114.5t29 -110.5t79 -39.5q55 0 87.5 44
t32.5 109q0 70 -28 112.5t-85 42.5z" />
    <glyph glyph-name="guillemotleft" unicode="&#xab;" horiz-adv-x="423" 
d="M110 265l99 -166q7 -13 7 -18q0 -15 -18 -15q-10 0 -17 9l-120 149q-18 22 -18 36t18 36l120 148q7 9 18 9q17 0 17 -14q0 -7 -7 -18zM284 265l99 -166q7 -13 7 -18q0 -15 -18 -15q-10 0 -17 9l-120 149q-18 22 -18 36t18 36l120 148q7 9 18 9q17 0 17 -14q0 -7 -7 -18z
" />
    <glyph glyph-name="logicalnot" unicode="&#xac;" horiz-adv-x="554" 
d="M469 214q-23 0 -23 24v154h-374q-24 0 -24 22q0 23 24 23h393q27 0 27 -24v-175q0 -24 -23 -24z" />
    <glyph glyph-name="registered" unicode="&#xae;" horiz-adv-x="549" 
d="M231 484v-80q0 -14 -17 -14q-16 0 -16 14v187q0 16 17 19q18 2 46 2q93 0 93 -62q0 -50 -53 -61q31 -45 51 -77q4 -7 4 -11q0 -11 -16 -11q-12 0 -20 11q-6 8 -15 22.5l-20 33l-16 27.5h-38zM263 503q57 0 57 47q0 43 -60 43q-19 0 -29 -1v-89h32zM87 498
q0 -86 54 -141.5t134 -55.5q79 0 133 56t54 141q0 87 -53.5 142t-133.5 55t-134 -56t-54 -141zM58 498q0 96 63 159t154 63t153.5 -62t62.5 -160q0 -95 -63 -158.5t-153 -63.5q-94 0 -155.5 62t-61.5 160z" />
    <glyph glyph-name="degree" unicode="&#xb0;" horiz-adv-x="346" 
d="M40 589q0 55 39.5 93t95.5 38q59 0 97 -37.5t38 -93.5q0 -55 -39.5 -93t-95.5 -38q-59 0 -97 37.5t-38 93.5zM80 589q0 -42 26 -69.5t69 -27.5q42 0 68.5 28t26.5 69t-26.5 69t-68.5 28t-68.5 -28t-26.5 -69z" />
    <glyph glyph-name="twosuperior" unicode="&#xb2;" horiz-adv-x="381" 
d="M272 610q0 80 -86 80q-58 0 -94 -47q-14 -18 -27 -18q-19 0 -19 17q0 13 10 24q19 23 54.5 38.5t76.5 15.5q69 0 109 -30t40 -81q0 -40 -23.5 -73t-70.5 -73q-6 -6 -56 -46q-79 -66 -106 -95v-3h231q26 0 26 -24q0 -25 -26 -25h-258q-25 0 -25 27q0 14 12 29
q40 48 124 122q55 48 81.5 83.5t26.5 78.5z" />
    <glyph glyph-name="threesuperior" unicode="&#xb3;" horiz-adv-x="414" 
d="M184 294q49 0 79 27.5t30 71.5q0 95 -113 95h-21q-19 0 -19 17t19 17h22q100 0 100 88q0 37 -22.5 58t-63.5 21q-58 0 -92 -44q-15 -16 -26 -16q-19 0 -19 18q0 8 8 20q42 53 129 53q69 0 109 -30.5t40 -80.5q0 -32 -21.5 -58.5t-64.5 -35.5v-3q43 -11 71 -39.5t28 -73.5
q0 -62 -49 -99t-125 -37q-93 0 -136 48q-9 11 -9 20q0 21 22 21q12 0 25 -16q34 -42 99 -42z" />
    <glyph glyph-name="acute" unicode="&#xb4;" horiz-adv-x="491" 
d="M323 673l-129 -93q-9 -6 -17 -6q-14 0 -14 13q0 7 7 14l103 112q15 18 35 18q13 0 24 -8t11 -22q0 -15 -20 -28z" />
    <glyph glyph-name="paragraph" unicode="&#xb6;" horiz-adv-x="679" 
d="M538 -198v874h-83v-874q0 -20 -23 -20q-24 0 -24 20v874h-81v-392q0 -14 -10 -23t-27 -9q-105 0 -169 63.5t-64 162.5q0 100 69.5 164t193.5 64h229q36 0 36 -27v-877q0 -20 -23 -20q-24 0 -24 20z" />
    <glyph glyph-name="periodcentered" unicode="&#xb7;" horiz-adv-x="220" 
d="M110 288q-24 0 -38 12.5t-14 31.5q0 18 14.5 30t37.5 12q24 0 38 -12t14 -30q0 -19 -14 -31.5t-38 -12.5z" />
    <glyph glyph-name="cedilla" unicode="&#xb8;" horiz-adv-x="469" 
d="M277 -85q0 -29 -13 -62t-30 -55q-7 -10 -16 -10q-14 0 -14 14q0 6 5 28q6 28 6 49q0 6 -1 18t-1 16q0 33 32 33t32 -31z" />
    <glyph glyph-name="onesuperior" unicode="&#xb9;" horiz-adv-x="269" 
d="M122 294v385q-40 -8 -69 -8q-20 0 -20 14q0 13 18 15q45 3 76 12q15 4 25 4q30 0 30 -27v-395q0 -24 -30 -24t-30 24z" />
    <glyph glyph-name="ordmasculine" unicode="&#xba;" horiz-adv-x="459" 
d="M48 526q0 85 51 136.5t130 51.5q82 0 132 -49.5t50 -135.5t-51 -137.5t-131 -51.5q-81 0 -131 49.5t-50 136.5zM113 526q0 -76 32 -116t84 -40t84.5 42.5t32.5 116.5q0 76 -32.5 115.5t-84.5 39.5q-51 0 -83.5 -43t-32.5 -115z" />
    <glyph glyph-name="guillemotright" unicode="&#xbb;" horiz-adv-x="423" 
d="M313 254l-99 166q-7 13 -7 18q0 15 18 15q10 0 17 -9l120 -149q18 -22 18 -36q0 -13 -18 -36l-120 -148q-8 -9 -18 -9q-17 0 -17 14q0 7 7 18zM139 254l-99 166q-7 13 -7 18q0 15 18 15q10 0 17 -9l120 -149q18 -22 18 -36q0 -13 -18 -36l-120 -148q-8 -9 -18 -9
q-17 0 -17 14q0 7 7 18z" />
    <glyph glyph-name="onequarter" unicode="&#xbc;" horiz-adv-x="833" 
d="M95 -26l503 740q9 14 23 14q10 0 18.5 -5t8.5 -14q0 -8 -7 -18l-503 -740q-9 -14 -23 -14q-10 0 -18.5 5t-8.5 14q0 8 7 18zM659 103h-203q-26 0 -26 25q0 13 8 26q18 28 65 89l134 177q17 22 43 22q39 0 39 -31v-263h42q24 0 24 -22q0 -23 -24 -23h-42v-83
q0 -24 -30 -24t-30 24v83zM659 148v106q0 90 3 144h-3q-12 -19 -51 -73l-78 -104q-23 -32 -54 -70v-3h183zM137 294v385q-40 -8 -69 -8q-20 0 -20 14q0 13 18 15q45 3 76 12q15 4 25 4q30 0 30 -27v-395q0 -24 -30 -24t-30 24z" />
    <glyph glyph-name="onehalf" unicode="&#xbd;" horiz-adv-x="845" 
d="M87 -26l503 740q9 14 23 14q10 0 18.5 -5t8.5 -14q0 -8 -7 -18l-503 -740q-9 -14 -23 -14q-10 0 -18.5 5t-8.5 14q0 8 7 18zM732 341q0 80 -86 80q-58 0 -94 -47q-14 -18 -27 -18q-20 0 -20 18q0 10 11 23q20 23 55 38.5t76 15.5q69 0 109 -30t40 -81q0 -41 -25 -75
t-73 -75l-52 -42q-79 -66 -106 -95v-3h231q26 0 26 -24q0 -25 -26 -25h-258q-25 0 -25 27q0 14 12 29q40 48 124 122q55 48 81.5 83.5t26.5 78.5zM137 294v385q-40 -8 -69 -8q-20 0 -20 14q0 13 18 15q45 3 76 12q15 4 25 4q30 0 30 -27v-395q0 -24 -30 -24t-30 24z" />
    <glyph glyph-name="threequarters" unicode="&#xbe;" horiz-adv-x="911" 
d="M188 -26l503 740q9 14 23 14q10 0 18.5 -5t8.5 -14q0 -8 -7 -18l-503 -740q-9 -14 -23 -14q-10 0 -18.5 5t-8.5 14q0 8 7 18zM737 103h-203q-26 0 -26 25q0 13 8 26q18 28 65 89l134 177q17 22 43 22q39 0 39 -31v-263h42q24 0 24 -22q0 -23 -24 -23h-42v-83
q0 -24 -30 -24t-30 24v83zM737 148v106q0 90 3 144h-3q-12 -19 -51 -73l-78 -104q-23 -32 -54 -70v-3h183zM194 294q49 0 79 27.5t30 71.5q0 95 -113 95h-21q-19 0 -19 17t19 17h22q100 0 100 88q0 37 -22.5 58t-63.5 21q-58 0 -92 -44q-15 -16 -26 -16q-19 0 -19 18
q0 8 8 20q42 53 129 53q69 0 109 -30.5t40 -80.5q0 -32 -21.5 -58.5t-64.5 -35.5v-3q43 -11 71 -39.5t28 -73.5q0 -62 -49 -99t-125 -37q-93 0 -136 48q-9 11 -9 20q0 21 22 21q12 0 25 -16q34 -42 99 -42z" />
    <glyph glyph-name="questiondown" unicode="&#xbf;" horiz-adv-x="507" 
d="M285 499q23 0 36.5 -12t13.5 -30q0 -17 -13.5 -28.5t-36.5 -11.5t-36.5 11.5t-13.5 28.5q0 19 13.5 30.5t36.5 11.5zM267 -228q-103 0 -168 45t-65 126q0 57 35.5 103.5t113.5 101.5q47 33 66 59.5t21 67.5q2 21 17 21q12 0 17 -14q2 -16 2 -30q0 -50 -18.5 -84.5
t-68.5 -75.5q-54 -46 -76 -79.5t-22 -78.5q0 -57 39.5 -92t108.5 -35q96 0 153 76q22 28 39 28q24 0 24 -23q0 -13 -10 -27q-30 -40 -86 -64.5t-122 -24.5z" />
    <glyph glyph-name="Agrave" unicode="&#xc0;" horiz-adv-x="642" 
d="M544 26l-68 192h-333q-1 -3 -76 -196q-10 -27 -32 -27q-27 0 -27 24q0 11 5 23q207 493 271 632q17 36 62 36q41 0 54 -36l230 -629q4 -11 4 -20q0 -30 -41 -30q-38 0 -49 31zM274 544l-115 -285h304l-140 397h-4zM364 776l-127 92q-20 15 -20 29t10.5 22t24.5 8
q20 0 37 -18l100 -112q7 -7 7 -14q0 -13 -15 -13q-9 0 -17 6z" />
    <glyph glyph-name="Aacute" unicode="&#xc1;" horiz-adv-x="642" 
d="M544 26l-68 192h-333q-1 -3 -76 -196q-10 -27 -32 -27q-27 0 -27 24q0 11 5 23q207 493 271 632q17 36 62 36q41 0 54 -36l230 -629q4 -11 4 -20q0 -30 -41 -30q-38 0 -49 31zM274 544l-115 -285h304l-140 397h-4zM438 869l-129 -93q-9 -6 -17 -6q-14 0 -14 13q0 7 7 14
l103 112q15 18 35 18q13 0 24 -8t11 -22t-20 -28z" />
    <glyph glyph-name="Acircumflex" unicode="&#xc2;" horiz-adv-x="642" 
d="M544 26l-68 192h-333q-1 -3 -76 -196q-10 -27 -32 -27q-27 0 -27 24q0 11 5 23q207 493 271 632q17 36 62 36q41 0 54 -36l230 -629q4 -11 4 -20q0 -30 -41 -30q-38 0 -49 31zM274 544l-115 -285h304l-140 397h-4zM459 775l-120 76l-116 -76q-7 -5 -16 -5q-14 0 -14 13
q0 7 8 15l112 102q14 14 30 14q14 0 30 -14l108 -102q8 -8 8 -15q0 -13 -14 -13q-9 0 -16 5z" />
    <glyph glyph-name="Atilde" unicode="&#xc3;" horiz-adv-x="642" 
d="M544 26l-68 192h-333q-1 -3 -76 -196q-10 -27 -32 -27q-27 0 -27 24q0 11 5 23q207 493 271 632q17 36 62 36q41 0 54 -36l230 -629q4 -11 4 -20q0 -30 -41 -30q-38 0 -49 31zM274 544l-115 -285h304l-140 397h-4zM408 786q-43 0 -86 26q-38 22 -59 22q-32 0 -51 -37
q-6 -12 -16 -12q-15 0 -15 14q0 7 4 17q28 67 93 67q41 0 86 -26q37 -22 59 -22q18 0 29 8t21 28q7 12 17 12q15 0 15 -13q0 -7 -4 -17q-26 -67 -93 -67z" />
    <glyph glyph-name="Adieresis" unicode="&#xc4;" horiz-adv-x="642" 
d="M544 26l-68 192h-333q-1 -3 -76 -196q-10 -27 -32 -27q-27 0 -27 24q0 11 5 23q207 493 271 632q17 36 62 36q41 0 54 -36l230 -629q4 -11 4 -20q0 -30 -41 -30q-38 0 -49 31zM274 544l-115 -285h304l-140 397h-4zM231 794q-21 0 -34 10.5t-13 26.5t13 26.5t34 10.5
q22 0 34.5 -10.5t12.5 -26.5t-12.5 -26.5t-34.5 -10.5zM448 794q-22 0 -34.5 10.5t-12.5 26.5t12.5 26.5t34.5 10.5q21 0 33.5 -10.5t12.5 -26.5t-12.5 -26.5t-33.5 -10.5z" />
    <glyph glyph-name="Aring" unicode="&#xc5;" horiz-adv-x="642" 
d="M544 26l-68 192h-333q-1 -3 -76 -196q-10 -27 -32 -27q-27 0 -27 24q0 11 5 23q207 493 271 632q17 36 62 36q41 0 54 -36l230 -629q4 -11 4 -20q0 -30 -41 -30q-38 0 -49 31zM274 544l-115 -285h304l-140 397h-4zM255 829q0 37 25.5 62t62.5 25q39 0 63.5 -24.5
t24.5 -62.5q0 -37 -25.5 -62t-62.5 -25q-40 0 -64 24.5t-24 62.5zM285 829q0 -27 15.5 -44t42.5 -17q24 0 41 17t17 44q0 26 -16 43.5t-42 17.5q-24 0 -41 -17.5t-17 -43.5z" />
    <glyph glyph-name="AE" unicode="&#xc6;" horiz-adv-x="997" 
d="M476 224h-286l-129 -207q-15 -22 -33 -22q-27 0 -27 24q0 9 11 27l207.5 318.5t205.5 308.5q23 33 61 33h437q24 0 24 -21q0 -20 -24 -20h-365v-271h315q24 0 24 -21t-24 -21h-315v-307h375q24 0 24 -20q0 -21 -24 -21h-417q-40 0 -40 37v183zM476 265v400h-9l-251 -400
h260z" />
    <glyph glyph-name="Ccedilla" unicode="&#xc7;" horiz-adv-x="680" 
d="M378 24q123 0 199 93q19 24 34 24q22 0 24 -21q0 -11 -11 -25q-36 -49 -101 -78t-152 -29q-150 0 -238.5 97.5t-88.5 270.5q0 165 93.5 264.5t238.5 99.5q92 0 156 -29t93 -71q9 -12 9 -25q0 -11 -8 -18.5t-21 -7.5q-19 0 -40 27q-66 88 -187 88q-113 0 -178.5 -89.5
t-65.5 -238.5q0 -152 66 -242t178 -90zM402 -85q0 -29 -13 -62t-30 -55q-7 -10 -16 -10q-14 0 -14 14q0 6 5 28q6 28 6 49q0 6 -1 18t-1 16q0 33 32 33t32 -31z" />
    <glyph glyph-name="Egrave" unicode="&#xc8;" horiz-adv-x="615" 
d="M94 41v609q0 56 63 56h384q24 0 24 -21q0 -20 -24 -20h-365v-271h315q24 0 24 -21q0 -20 -24 -20h-315v-308h375q24 0 24 -20q0 -21 -24 -21h-417q-40 0 -40 37zM368 776l-127 92q-20 15 -20 29t10.5 22t24.5 8q20 0 37 -18l100 -112q7 -7 7 -14q0 -13 -15 -13
q-9 0 -17 6z" />
    <glyph glyph-name="Eacute" unicode="&#xc9;" horiz-adv-x="615" 
d="M94 41v609q0 56 63 56h384q24 0 24 -21q0 -20 -24 -20h-365v-271h315q24 0 24 -21q0 -20 -24 -20h-315v-308h375q24 0 24 -20q0 -21 -24 -21h-417q-40 0 -40 37zM438 869l-129 -93q-9 -6 -17 -6q-14 0 -14 13q0 7 7 14l103 112q15 18 35 18q13 0 24 -8t11 -22t-20 -28z
" />
    <glyph glyph-name="Ecircumflex" unicode="&#xca;" horiz-adv-x="615" 
d="M94 41v609q0 56 63 56h384q24 0 24 -21q0 -20 -24 -20h-365v-271h315q24 0 24 -21q0 -20 -24 -20h-315v-308h375q24 0 24 -20q0 -21 -24 -21h-417q-40 0 -40 37zM457 775l-120 76l-116 -76q-7 -5 -16 -5q-14 0 -14 13q0 7 8 15l112 102q14 14 30 14q14 0 30 -14l108 -102
q8 -8 8 -15q0 -13 -14 -13q-8 0 -16 5z" />
    <glyph glyph-name="Edieresis" unicode="&#xcb;" horiz-adv-x="615" 
d="M94 41v609q0 56 63 56h384q24 0 24 -21q0 -20 -24 -20h-365v-271h315q24 0 24 -21q0 -20 -24 -20h-315v-308h375q24 0 24 -20q0 -21 -24 -21h-417q-40 0 -40 37zM224 794q-21 0 -34 10.5t-13 26.5t13 26.5t34 10.5q22 0 34.5 -10.5t12.5 -26.5t-12.5 -26.5t-34.5 -10.5z
M441 794q-22 0 -34.5 10.5t-12.5 26.5t12.5 26.5t34.5 10.5q21 0 33.5 -10.5t12.5 -26.5t-12.5 -26.5t-33.5 -10.5z" />
    <glyph glyph-name="Igrave" unicode="&#xcc;" horiz-adv-x="270" 
d="M176 677v-646q0 -15 -12 -24t-30 -9t-29 9t-11 24v646q0 15 11.5 24t29.5 9t29.5 -9t11.5 -24zM154 776l-127 92q-20 15 -20 29t10.5 22t24.5 8q21 0 37 -18l100 -112q7 -7 7 -14q0 -13 -15 -13q-9 0 -17 6z" />
    <glyph glyph-name="Iacute" unicode="&#xcd;" horiz-adv-x="270" 
d="M176 677v-646q0 -15 -12 -24t-30 -9t-29 9t-11 24v646q0 15 11.5 24t29.5 9t29.5 -9t11.5 -24zM249 869l-129 -93q-9 -6 -17 -6q-14 0 -14 13q0 7 7 14l103 112q15 18 35 18q13 0 24 -8t11 -22t-20 -28z" />
    <glyph glyph-name="Icircumflex" unicode="&#xce;" horiz-adv-x="270" 
d="M176 677v-646q0 -15 -12 -24t-30 -9t-29 9t-11 24v646q0 15 11.5 24t29.5 9t29.5 -9t11.5 -24zM255 775l-120 76l-116 -76q-7 -5 -16 -5q-14 0 -14 13q0 7 8 15l112 102q14 14 30 14q14 0 30 -14l108 -102q8 -8 8 -15q0 -13 -14 -13q-9 0 -16 5z" />
    <glyph glyph-name="Idieresis" unicode="&#xcf;" horiz-adv-x="270" 
d="M176 677v-646q0 -15 -12 -24t-30 -9t-29 9t-11 24v646q0 15 11.5 24t29.5 9t29.5 -9t11.5 -24zM27 794q-21 0 -34 10.5t-13 26.5t13 26.5t34 10.5q22 0 34.5 -10.5t12.5 -26.5t-12.5 -26.5t-34.5 -10.5zM244 794q-22 0 -34.5 10.5t-12.5 26.5t12.5 26.5t34.5 10.5
q21 0 33.5 -10.5t12.5 -26.5t-12.5 -26.5t-33.5 -10.5z" />
    <glyph glyph-name="Ntilde" unicode="&#xd1;" horiz-adv-x="747" 
d="M94 25v644q0 19 14 30t39 11q36 0 59 -32q96 -134 334 -497q48 -75 64 -104h4q-3 79 -3 167v439q0 27 25 27q24 0 24 -27v-644q0 -41 -50 -41q-42 0 -64 35l-334 499q-48 72 -63 101h-3q3 -81 3 -169v-439q0 -27 -25 -27q-24 0 -24 27zM453 786q-43 0 -86 26
q-39 22 -59 22q-32 0 -51 -37q-6 -12 -16 -12q-15 0 -15 14q0 7 4 17q28 67 93 67q41 0 86 -26q37 -22 59 -22q18 0 29 8t21 28q7 12 17 12q15 0 15 -13q0 -7 -4 -17q-26 -67 -93 -67z" />
    <glyph glyph-name="Ograve" unicode="&#xd2;" 
d="M44 354q0 166 95 266t245 100q151 0 245.5 -97t94.5 -269q0 -166 -96 -266t-244 -100q-153 0 -246.5 97t-93.5 269zM134 354q0 -157 66.5 -243.5t183.5 -86.5q115 0 182.5 88.5t67.5 241.5q0 156 -67.5 243t-182.5 87q-117 0 -183.5 -88.5t-66.5 -241.5zM424 776l-127 92
q-20 15 -20 29t10.5 22t24.5 8q20 0 37 -18l100 -112q7 -7 7 -14q0 -13 -15 -13q-9 0 -17 6z" />
    <glyph glyph-name="Oacute" unicode="&#xd3;" 
d="M44 354q0 166 95 266t245 100q151 0 245.5 -97t94.5 -269q0 -166 -96 -266t-244 -100q-153 0 -246.5 97t-93.5 269zM134 354q0 -157 66.5 -243.5t183.5 -86.5q115 0 182.5 88.5t67.5 241.5q0 156 -67.5 243t-182.5 87q-117 0 -183.5 -88.5t-66.5 -241.5zM492 869
l-129 -93q-9 -6 -17 -6q-14 0 -14 13q0 7 7 14l103 112q15 18 35 18q13 0 24 -8t11 -22t-20 -28z" />
    <glyph glyph-name="Ocircumflex" unicode="&#xd4;" 
d="M44 354q0 166 95 266t245 100q151 0 245.5 -97t94.5 -269q0 -166 -96 -266t-244 -100q-153 0 -246.5 97t-93.5 269zM134 354q0 -157 66.5 -243.5t183.5 -86.5q115 0 182.5 88.5t67.5 241.5q0 156 -67.5 243t-182.5 87q-117 0 -183.5 -88.5t-66.5 -241.5zM507 775l-120 76
l-116 -76q-7 -5 -16 -5q-14 0 -14 13q0 7 8 15l112 102q14 14 30 14q14 0 30 -14l108 -102q8 -8 8 -15q0 -13 -14 -13q-9 0 -16 5z" />
    <glyph glyph-name="Otilde" unicode="&#xd5;" 
d="M44 354q0 166 95 266t245 100q151 0 245.5 -97t94.5 -269q0 -166 -96 -266t-244 -100q-153 0 -246.5 97t-93.5 269zM134 354q0 -157 66.5 -243.5t183.5 -86.5q115 0 182.5 88.5t67.5 241.5q0 156 -67.5 243t-182.5 87q-117 0 -183.5 -88.5t-66.5 -241.5zM464 786
q-43 0 -86 26q-38 22 -59 22q-32 0 -51 -37q-6 -12 -16 -12q-15 0 -15 14q0 7 4 17q28 67 93 67q41 0 86 -26q37 -22 59 -22q18 0 29 8t21 28q7 12 17 12q15 0 15 -13q0 -7 -4 -17q-26 -67 -93 -67z" />
    <glyph glyph-name="Odieresis" unicode="&#xd6;" 
d="M44 354q0 166 95 266t245 100q151 0 245.5 -97t94.5 -269q0 -166 -96 -266t-244 -100q-153 0 -246.5 97t-93.5 269zM134 354q0 -157 66.5 -243.5t183.5 -86.5q115 0 182.5 88.5t67.5 241.5q0 156 -67.5 243t-182.5 87q-117 0 -183.5 -88.5t-66.5 -241.5zM279 794
q-21 0 -34 10.5t-13 26.5t13 26.5t34 10.5q22 0 34.5 -10.5t12.5 -26.5t-12.5 -26.5t-34.5 -10.5zM496 794q-22 0 -34.5 10.5t-12.5 26.5t12.5 26.5t34.5 10.5q21 0 33.5 -10.5t12.5 -26.5t-12.5 -26.5t-33.5 -10.5z" />
    <glyph glyph-name="multiply" unicode="&#xd7;" horiz-adv-x="488" 
d="M59 170l153 155l-154 155q-10 10 -10 19q0 8 6.5 14.5t15.5 6.5q11 0 20 -9l154 -154l153 154q10 10 20 10q9 0 15.5 -5.5t6.5 -13.5q0 -10 -10 -20l-155 -155l156 -155q10 -12 10 -19q0 -8 -7 -14.5t-15 -6.5q-10 0 -21 9l-154 153l-153 -153q-10 -10 -20 -10
q-8 0 -14.5 5.5t-6.5 13.5q0 11 10 20z" />
    <glyph glyph-name="Oslash" unicode="&#xd8;" 
d="M44 354q0 166 95 266t245 100q120 0 203 -62l48 62q10 14 22 14q22 0 22 -18q0 -6 -8 -18l-51 -65q104 -102 104 -279q0 -166 -96 -266t-244 -100q-126 0 -211 65l-50 -65q-12 -14 -23 -14q-22 0 -22 18q0 6 8 18l55 70q-97 100 -97 274zM134 354q0 -134 54 -214l363 472
q-64 72 -167 72q-117 0 -183.5 -88.5t-66.5 -241.5zM633 354q0 136 -58 222l-364 -474q64 -78 173 -78q115 0 182 88.5t67 241.5z" />
    <glyph glyph-name="Ugrave" unicode="&#xd9;" horiz-adv-x="722" 
d="M82 277v400q0 15 11.5 24t29.5 9t29.5 -9t11.5 -24v-420q0 -107 48.5 -170.5t151.5 -63.5q90 0 146 59t56 171v426q0 31 37 31t37 -31v-410q0 -122 -69.5 -201.5t-206.5 -79.5q-140 0 -211 74t-71 215zM397 776l-127 92q-20 15 -20 29t10.5 22t24.5 8q21 0 37 -18
l100 -112q7 -7 7 -14q0 -13 -15 -13q-10 0 -17 6z" />
    <glyph glyph-name="Uacute" unicode="&#xda;" horiz-adv-x="722" 
d="M82 277v400q0 15 11.5 24t29.5 9t29.5 -9t11.5 -24v-420q0 -107 48.5 -170.5t151.5 -63.5q90 0 146 59t56 171v426q0 31 37 31t37 -31v-410q0 -122 -69.5 -201.5t-206.5 -79.5q-140 0 -211 74t-71 215zM470 869l-129 -93q-9 -6 -17 -6q-14 0 -14 13q0 7 7 14l103 112
q15 18 35 18q13 0 24 -8t11 -22t-20 -28z" />
    <glyph glyph-name="Ucircumflex" unicode="&#xdb;" horiz-adv-x="722" 
d="M82 277v400q0 15 11.5 24t29.5 9t29.5 -9t11.5 -24v-420q0 -107 48.5 -170.5t151.5 -63.5q90 0 146 59t56 171v426q0 31 37 31t37 -31v-410q0 -122 -69.5 -201.5t-206.5 -79.5q-140 0 -211 74t-71 215zM487 775l-120 76l-116 -76q-7 -5 -16 -5q-14 0 -14 13q0 7 8 15
l112 102q14 14 30 14q14 0 30 -14l108 -102q8 -8 8 -15q0 -13 -14 -13q-8 0 -16 5z" />
    <glyph glyph-name="Udieresis" unicode="&#xdc;" horiz-adv-x="722" 
d="M82 277v400q0 15 11.5 24t29.5 9t29.5 -9t11.5 -24v-420q0 -107 48.5 -170.5t151.5 -63.5q90 0 146 59t56 171v426q0 31 37 31t37 -31v-410q0 -122 -69.5 -201.5t-206.5 -79.5q-140 0 -211 74t-71 215zM256 794q-21 0 -34 10.5t-13 26.5t13 26.5t34 10.5q22 0 34.5 -10.5
t12.5 -26.5t-12.5 -26.5t-34.5 -10.5zM473 794q-22 0 -34.5 10.5t-12.5 26.5t12.5 26.5t34.5 10.5q21 0 33.5 -10.5t12.5 -26.5t-12.5 -26.5t-33.5 -10.5z" />
    <glyph glyph-name="germandbls" unicode="&#xdf;" horiz-adv-x="642" 
d="M513 197q0 177 -186 177h-11q-24 0 -24 20t24 20h18q79 0 119 45q35 38 35 115q0 72 -46.5 112t-115.5 40q-77 0 -122.5 -52.5t-45.5 -153.5v-490q0 -15 -11.5 -23.5t-28.5 -8.5t-28.5 8.5t-11.5 23.5v469q0 71 21.5 124t59 82t79.5 42.5t90 13.5q61 0 114.5 -20
t89.5 -64t36 -105q0 -66 -41 -111.5t-114 -57.5v-4q86 -10 137 -60t51 -129q0 -93 -62.5 -155t-176.5 -62q-74 0 -116 22q-19 10 -19 23q0 10 6.5 16t16.5 6q11 0 28 -10q39 -23 87 -23q73 0 110.5 49.5t37.5 120.5z" />
    <glyph glyph-name="agrave" unicode="&#xe0;" horiz-adv-x="609" 
d="M455 476q3 30 38 30q16 0 27 -8t11 -23v-446q0 -14 -11 -22.5t-28 -8.5q-36 0 -38 31l-2 82h-4q-26 -63 -75 -93.5t-111 -30.5q-109 0 -168.5 71.5t-59.5 187.5q0 120 69 195t178 75q64 0 106.5 -31.5t61.5 -79.5h4zM287 479q-76 0 -122.5 -64.5t-46.5 -167.5
q0 -105 42.5 -162.5t116.5 -57.5q82 0 129.5 63.5t47.5 159.5q0 102 -42 165.5t-125 63.5zM323 580l-127 92q-19 15 -19 29t10.5 22t23.5 8q22 0 37 -18l101 -112q7 -7 7 -14q0 -13 -16 -13q-8 0 -17 6z" />
    <glyph glyph-name="aacute" unicode="&#xe1;" horiz-adv-x="609" 
d="M455 476q3 30 38 30q16 0 27 -8t11 -23v-446q0 -14 -11 -22.5t-28 -8.5q-36 0 -38 31l-2 82h-4q-26 -63 -75 -93.5t-111 -30.5q-109 0 -168.5 71.5t-59.5 187.5q0 120 69 195t178 75q64 0 106.5 -31.5t61.5 -79.5h4zM287 479q-76 0 -122.5 -64.5t-46.5 -167.5
q0 -105 42.5 -162.5t116.5 -57.5q82 0 129.5 63.5t47.5 159.5q0 102 -42 165.5t-125 63.5zM395 673l-129 -93q-9 -6 -17 -6q-14 0 -14 13q0 7 7 14l103 112q15 18 35 18q13 0 24 -8t11 -22q0 -15 -20 -28z" />
    <glyph glyph-name="acircumflex" unicode="&#xe2;" horiz-adv-x="609" 
d="M455 476q3 30 38 30q16 0 27 -8t11 -23v-446q0 -14 -11 -22.5t-28 -8.5q-36 0 -38 31l-2 82h-4q-26 -63 -75 -93.5t-111 -30.5q-109 0 -168.5 71.5t-59.5 187.5q0 120 69 195t178 75q64 0 106.5 -31.5t61.5 -79.5h4zM287 479q-76 0 -122.5 -64.5t-46.5 -167.5
q0 -105 42.5 -162.5t116.5 -57.5q82 0 129.5 63.5t47.5 159.5q0 102 -42 165.5t-125 63.5zM410 580l-119 81l-117 -82q-8 -5 -14 -5q-15 0 -15 14q0 8 9 15l111 106q15 13 30 13t30 -13l108 -107q7 -7 7 -14q0 -14 -14 -14q-7 0 -16 6z" />
    <glyph glyph-name="atilde" unicode="&#xe3;" horiz-adv-x="609" 
d="M455 476q3 30 38 30q16 0 27 -8t11 -23v-446q0 -14 -11 -22.5t-28 -8.5q-36 0 -38 31l-2 82h-4q-26 -63 -75 -93.5t-111 -30.5q-109 0 -168.5 71.5t-59.5 187.5q0 120 69 195t178 75q64 0 106.5 -31.5t61.5 -79.5h4zM287 479q-76 0 -122.5 -64.5t-46.5 -167.5
q0 -105 42.5 -162.5t116.5 -57.5q82 0 129.5 63.5t47.5 159.5q0 102 -42 165.5t-125 63.5zM360 592q-43 0 -86 26q-39 22 -59 22q-32 0 -51 -37q-6 -12 -16 -12q-15 0 -15 14q0 7 4 17q28 67 93 67q41 0 86 -26q37 -22 59 -22q18 0 29 8t21 28q7 12 17 12q15 0 15 -13
q0 -7 -4 -17q-26 -67 -93 -67z" />
    <glyph glyph-name="adieresis" unicode="&#xe4;" horiz-adv-x="609" 
d="M455 476q3 30 38 30q16 0 27 -8t11 -23v-446q0 -14 -11 -22.5t-28 -8.5q-36 0 -38 31l-2 82h-4q-26 -63 -75 -93.5t-111 -30.5q-109 0 -168.5 71.5t-59.5 187.5q0 120 69 195t178 75q64 0 106.5 -31.5t61.5 -79.5h4zM287 479q-76 0 -122.5 -64.5t-46.5 -167.5
q0 -105 42.5 -162.5t116.5 -57.5q82 0 129.5 63.5t47.5 159.5q0 102 -42 165.5t-125 63.5zM179 601q-22 0 -34.5 10.5t-12.5 26.5t12.5 26t34.5 10q21 0 33.5 -10.5t12.5 -25.5q0 -16 -12.5 -26.5t-33.5 -10.5zM395 601q-21 0 -34 10.5t-13 26.5q0 15 13 25.5t34 10.5
t33.5 -10.5t12.5 -25.5q0 -16 -12.5 -26.5t-33.5 -10.5z" />
    <glyph glyph-name="aring" unicode="&#xe5;" horiz-adv-x="609" 
d="M455 476q3 30 38 30q16 0 27 -8t11 -23v-446q0 -14 -11 -22.5t-28 -8.5q-36 0 -38 31l-2 82h-4q-26 -63 -75 -93.5t-111 -30.5q-109 0 -168.5 71.5t-59.5 187.5q0 120 69 195t178 75q64 0 106.5 -31.5t61.5 -79.5h4zM287 479q-76 0 -122.5 -64.5t-46.5 -167.5
q0 -105 42.5 -162.5t116.5 -57.5q82 0 129.5 63.5t47.5 159.5q0 102 -42 165.5t-125 63.5zM207 654q0 37 25.5 62t62.5 25q39 0 63.5 -24.5t24.5 -62.5q0 -37 -25.5 -62t-62.5 -25q-40 0 -64 24.5t-24 62.5zM237 654q0 -27 15.5 -44t42.5 -17q24 0 41 17t17 44
q0 26 -16 43.5t-42 17.5q-24 0 -41 -17.5t-17 -43.5z" />
    <glyph glyph-name="ae" unicode="&#xe6;" horiz-adv-x="981" 
d="M34 247q0 120 69 194.5t178 74.5q64 0 106 -30.5t63 -75.5h4l2 66q2 30 38 30q32 0 34 -30l1 -65h5q23 46 68 75.5t112 29.5q97 0 159.5 -57.5t62.5 -165.5v-9q0 -35 -38 -35h-364v-8q0 -94 49 -155.5t130 -61.5q93 0 150 60q17 16 29 16q20 0 20 -18q0 -8 -9 -20
q-67 -74 -187 -74q-134 0 -188 112h-4v-71q-2 -31 -35 -31q-35 0 -35 31l-1 78h-4q-53 -119 -187 -119q-109 0 -168.5 71.5t-59.5 187.5zM118 248q0 -105 42.5 -162.5t116.5 -57.5q81 0 128 63.5t47 159.5q0 103 -41 165.5t-123 62.5q-76 0 -123 -64t-47 -167zM536 286h322
v15q0 91 -40 136.5t-109 45.5q-71 0 -118.5 -51.5t-54.5 -145.5z" />
    <glyph glyph-name="ccedilla" unicode="&#xe7;" horiz-adv-x="512" 
d="M430 84q17 18 29 18q8 0 14 -5.5t6 -13.5q0 -9 -9 -19q-66 -76 -187 -76q-116 0 -182.5 70.5t-66.5 191.5q0 114 70 190t184 76q128 0 182 -70q10 -11 10 -22q0 -10 -7 -17.5t-20 -7.5q-18 0 -36 24q-43 60 -127 60q-78 0 -125 -65t-47 -165q0 -102 45 -165.5t127 -63.5
q83 0 140 60zM311 -85q0 -29 -13 -62t-30 -55q-7 -10 -16 -10q-14 0 -14 14q0 6 5 28q6 28 6 49q0 6 -1 18t-1 16q0 33 32 33t32 -31z" />
    <glyph glyph-name="egrave" unicode="&#xe8;" horiz-adv-x="549" 
d="M288 24q91 0 150 60q16 17 28 17q20 0 20 -19q0 -8 -8 -19q-68 -75 -199 -75q-111 0 -178 69t-67 190q0 117 67.5 193t182.5 76q96 0 158.5 -58t62.5 -166v-9q0 -35 -38 -35h-350v-8q0 -95 45 -155.5t126 -60.5zM119 285h309v15q0 89 -39.5 136t-107.5 47q-70 0 -113 -51
t-49 -147zM321 580l-127 92q-19 15 -19 29t10.5 22t23.5 8q22 0 37 -18l101 -112q7 -7 7 -14q0 -13 -16 -13q-8 0 -17 6z" />
    <glyph glyph-name="eacute" unicode="&#xe9;" horiz-adv-x="549" 
d="M288 24q91 0 150 60q16 17 28 17q20 0 20 -19q0 -8 -8 -19q-68 -75 -199 -75q-111 0 -178 69t-67 190q0 117 67.5 193t182.5 76q96 0 158.5 -58t62.5 -166v-9q0 -35 -38 -35h-350v-8q0 -95 45 -155.5t126 -60.5zM119 285h309v15q0 89 -39.5 136t-107.5 47q-70 0 -113 -51
t-49 -147zM380 673l-129 -93q-9 -6 -17 -6q-14 0 -14 13q0 7 7 14l103 112q15 18 35 18q13 0 24 -8t11 -22q0 -15 -20 -28z" />
    <glyph glyph-name="ecircumflex" unicode="&#xea;" horiz-adv-x="549" 
d="M288 24q91 0 150 60q16 17 28 17q20 0 20 -19q0 -8 -8 -19q-68 -75 -199 -75q-111 0 -178 69t-67 190q0 117 67.5 193t182.5 76q96 0 158.5 -58t62.5 -166v-9q0 -35 -38 -35h-350v-8q0 -95 45 -155.5t126 -60.5zM119 285h309v15q0 89 -39.5 136t-107.5 47q-70 0 -113 -51
t-49 -147zM402 580l-119 81l-117 -82q-7 -5 -14 -5q-15 0 -15 14q0 8 9 15l111 106q15 13 30 13t30 -13l108 -107q7 -7 7 -14q0 -14 -14 -14q-7 0 -16 6z" />
    <glyph glyph-name="edieresis" unicode="&#xeb;" horiz-adv-x="549" 
d="M288 24q91 0 150 60q16 17 28 17q20 0 20 -19q0 -8 -8 -19q-68 -75 -199 -75q-111 0 -178 69t-67 190q0 117 67.5 193t182.5 76q96 0 158.5 -58t62.5 -166v-9q0 -35 -38 -35h-350v-8q0 -95 45 -155.5t126 -60.5zM119 285h309v15q0 89 -39.5 136t-107.5 47q-70 0 -113 -51
t-49 -147zM174 601q-22 0 -34.5 10.5t-12.5 26.5t12.5 26t34.5 10q21 0 33.5 -10.5t12.5 -25.5q0 -16 -12.5 -26.5t-33.5 -10.5zM390 601q-21 0 -34 10.5t-13 26.5q0 15 13 25.5t34 10.5t33.5 -10.5t12.5 -25.5q0 -16 -12.5 -26.5t-33.5 -10.5z" />
    <glyph glyph-name="igrave" unicode="&#xec;" horiz-adv-x="236" 
d="M139 580l-127 92q-19 15 -19 29t10.5 22t23.5 8q22 0 37 -18l101 -112q7 -7 7 -14q0 -13 -16 -13q-8 0 -17 6zM78 30v445q0 15 11.5 23.5t29.5 8.5q17 0 28 -8.5t11 -23.5v-445q0 -15 -11 -23.5t-28 -8.5t-29 8.5t-12 23.5z" />
    <glyph glyph-name="iacute" unicode="&#xed;" horiz-adv-x="236" 
d="M226 673l-129 -93q-9 -6 -17 -6q-14 0 -14 13q0 7 7 14l103 112q15 18 35 18q13 0 24 -8t11 -22q0 -15 -20 -28zM78 30v445q0 15 11.5 23.5t29.5 8.5q17 0 28 -8.5t11 -23.5v-445q0 -15 -11 -23.5t-28 -8.5t-29 8.5t-12 23.5z" />
    <glyph glyph-name="icircumflex" unicode="&#xee;" horiz-adv-x="236" 
d="M78 30v445q0 15 11.5 23.5t29.5 8.5q17 0 28 -8.5t11 -23.5v-445q0 -15 -11 -23.5t-28 -8.5t-29 8.5t-12 23.5zM238 580l-119 81l-117 -82q-8 -5 -14 -5q-15 0 -15 14q0 8 9 15l111 106q15 13 30 13t30 -13l108 -107q7 -7 7 -14q0 -14 -14 -14q-7 0 -16 6z" />
    <glyph glyph-name="idieresis" unicode="&#xef;" horiz-adv-x="236" 
d="M12 601q-22 0 -34.5 10.5t-12.5 26.5t12.5 26t34.5 10q21 0 33.5 -10.5t12.5 -25.5q0 -16 -12.5 -26.5t-33.5 -10.5zM228 601q-21 0 -34 10.5t-13 26.5q0 15 13 25.5t34 10.5t33.5 -10.5t12.5 -25.5q0 -16 -12.5 -26.5t-33.5 -10.5zM78 30v445q0 15 11.5 23.5t29.5 8.5
q17 0 28 -8.5t11 -23.5v-445q0 -15 -11 -23.5t-28 -8.5t-29 8.5t-12 23.5z" />
    <glyph glyph-name="ntilde" unicode="&#xf1;" horiz-adv-x="592" 
d="M78 30v446q0 30 39 30q37 0 37 -30l1 -68h5q21 53 66 80.5t103 27.5q191 0 191 -202v-284q0 -15 -11.5 -23.5t-28.5 -8.5t-28.5 8.5t-11.5 23.5v292q0 156 -129 156q-68 0 -110.5 -52.5t-42.5 -136.5v-259q0 -15 -11.5 -23.5t-28.5 -8.5t-28.5 8.5t-11.5 23.5zM370 592
q-43 0 -86 26q-39 22 -59 22q-32 0 -51 -37q-6 -12 -16 -12q-15 0 -15 14q0 7 4 17q28 67 93 67q41 0 86 -26q37 -22 59 -22q18 0 29 8t21 28q7 12 17 12q15 0 15 -13q0 -7 -4 -17q-26 -67 -93 -67z" />
    <glyph glyph-name="ograve" unicode="&#xf2;" horiz-adv-x="581" 
d="M34 249q0 120 72.5 193.5t183.5 73.5q115 0 186 -70t71 -192q0 -120 -72 -193t-185 -73q-114 0 -185 70t-71 191zM120 249q0 -112 46.5 -170t123.5 -58q76 0 123.5 62.5t47.5 170.5q0 113 -47 171t-124 58q-76 0 -123 -63t-47 -171zM334 580l-127 92q-19 15 -19 29
t10.5 22t23.5 8q22 0 37 -18l101 -112q7 -7 7 -14q0 -13 -16 -13q-8 0 -17 6z" />
    <glyph glyph-name="oacute" unicode="&#xf3;" horiz-adv-x="581" 
d="M34 249q0 120 72.5 193.5t183.5 73.5q115 0 186 -70t71 -192q0 -120 -72 -193t-185 -73q-114 0 -185 70t-71 191zM120 249q0 -112 46.5 -170t123.5 -58q76 0 123.5 62.5t47.5 170.5q0 113 -47 171t-124 58q-76 0 -123 -63t-47 -171zM400 673l-129 -93q-9 -6 -17 -6
q-14 0 -14 13q0 7 7 14l103 112q15 18 35 18q13 0 24 -8t11 -22q0 -15 -20 -28z" />
    <glyph glyph-name="ocircumflex" unicode="&#xf4;" horiz-adv-x="581" 
d="M34 249q0 120 72.5 193.5t183.5 73.5q115 0 186 -70t71 -192q0 -120 -72 -193t-185 -73q-114 0 -185 70t-71 191zM120 249q0 -112 46.5 -170t123.5 -58q76 0 123.5 62.5t47.5 170.5q0 113 -47 171t-124 58q-76 0 -123 -63t-47 -171zM413 580l-119 81l-117 -82
q-7 -5 -14 -5q-15 0 -15 14q0 8 9 15l111 106q15 13 30 13t30 -13l108 -107q7 -7 7 -14q0 -14 -14 -14q-7 0 -16 6z" />
    <glyph glyph-name="otilde" unicode="&#xf5;" horiz-adv-x="581" 
d="M34 249q0 120 72.5 193.5t183.5 73.5q115 0 186 -70t71 -192q0 -120 -72 -193t-185 -73q-114 0 -185 70t-71 191zM120 249q0 -112 46.5 -170t123.5 -58q76 0 123.5 62.5t47.5 170.5q0 113 -47 171t-124 58q-76 0 -123 -63t-47 -171zM360 592q-43 0 -86 26q-39 22 -59 22
q-32 0 -51 -37q-6 -12 -16 -12q-15 0 -15 14q0 7 4 17q28 67 93 67q41 0 86 -26q37 -22 59 -22q18 0 29 8t21 28q7 12 17 12q15 0 15 -13q0 -7 -4 -17q-26 -67 -93 -67z" />
    <glyph glyph-name="odieresis" unicode="&#xf6;" horiz-adv-x="581" 
d="M34 249q0 120 72.5 193.5t183.5 73.5q115 0 186 -70t71 -192q0 -120 -72 -193t-185 -73q-114 0 -185 70t-71 191zM120 249q0 -112 46.5 -170t123.5 -58q76 0 123.5 62.5t47.5 170.5q0 113 -47 171t-124 58q-76 0 -123 -63t-47 -171zM185 601q-22 0 -34.5 10.5t-12.5 26.5
t12.5 26t34.5 10q21 0 33.5 -10.5t12.5 -25.5q0 -16 -12.5 -26.5t-33.5 -10.5zM401 601q-21 0 -34 10.5t-13 26.5q0 15 13 25.5t34 10.5t33.5 -10.5t12.5 -25.5q0 -16 -12.5 -26.5t-33.5 -10.5z" />
    <glyph glyph-name="divide" unicode="&#xf7;" horiz-adv-x="557" 
d="M72 349h414q24 0 24 -22t-24 -22h-414q-24 0 -24 22t24 22zM278 472q-20 0 -31.5 10.5t-11.5 26.5q0 15 11.5 25.5t31.5 10.5t32 -10t12 -26t-12 -26.5t-32 -10.5zM278 108q-20 0 -31.5 10.5t-11.5 26.5q0 15 11.5 25.5t31.5 10.5t32 -10t12 -26t-12 -26.5t-32 -10.5z
" />
    <glyph glyph-name="oslash" unicode="&#xf8;" horiz-adv-x="581" 
d="M34 248q0 120 72.5 194t183.5 74q84 0 145 -39l30 42q10 14 22 14q20 0 20 -17q0 -6 -7 -17l-34 -45q81 -71 81 -201q0 -120 -72 -192.5t-185 -72.5q-81 0 -143 37l-36 -48q-10 -14 -21 -14q-20 0 -20 17q0 8 7 17l37 51q-80 70 -80 200zM119 248q0 -89 35 -145l249 332
q-43 47 -113 47q-76 0 -123.5 -63t-47.5 -171zM461 253q0 90 -36 145l-248 -332q44 -44 113 -44q76 0 123.5 61.5t47.5 169.5z" />
    <glyph glyph-name="ugrave" unicode="&#xf9;" horiz-adv-x="588" 
d="M510 474v-445q0 -15 -11 -23t-28 -8q-16 0 -26.5 8t-10.5 23l-1 69h-5q-21 -53 -66.5 -81.5t-102.5 -28.5q-191 0 -191 203v283q0 15 11.5 23.5t28.5 8.5t28.5 -8.5t11.5 -23.5v-292q0 -156 129 -156q67 0 110 53t43 136v259q0 15 11.5 23.5t28.5 8.5t28.5 -8.5
t11.5 -23.5zM312 580l-127 92q-19 15 -19 29t10.5 22t23.5 8q22 0 37 -18l101 -112q7 -7 7 -14q0 -13 -16 -13q-8 0 -17 6z" />
    <glyph glyph-name="uacute" unicode="&#xfa;" horiz-adv-x="588" 
d="M510 474v-445q0 -15 -11 -23t-28 -8q-16 0 -26.5 8t-10.5 23l-1 69h-5q-21 -53 -66.5 -81.5t-102.5 -28.5q-191 0 -191 203v283q0 15 11.5 23.5t28.5 8.5t28.5 -8.5t11.5 -23.5v-292q0 -156 129 -156q67 0 110 53t43 136v259q0 15 11.5 23.5t28.5 8.5t28.5 -8.5
t11.5 -23.5zM398 673l-129 -93q-9 -6 -17 -6q-14 0 -14 13q0 7 7 14l103 112q15 18 35 18q13 0 24 -8t11 -22q0 -15 -20 -28z" />
    <glyph glyph-name="ucircumflex" unicode="&#xfb;" horiz-adv-x="588" 
d="M510 474v-445q0 -15 -11 -23t-28 -8q-16 0 -26.5 8t-10.5 23l-1 69h-5q-21 -53 -66.5 -81.5t-102.5 -28.5q-191 0 -191 203v283q0 15 11.5 23.5t28.5 8.5t28.5 -8.5t11.5 -23.5v-292q0 -156 129 -156q67 0 110 53t43 136v259q0 15 11.5 23.5t28.5 8.5t28.5 -8.5
t11.5 -23.5zM408 580l-119 81l-117 -82q-7 -5 -14 -5q-15 0 -15 14q0 8 9 15l111 106q15 13 30 13t30 -13l108 -107q7 -7 7 -14q0 -14 -14 -14q-7 0 -16 6z" />
    <glyph glyph-name="udieresis" unicode="&#xfc;" horiz-adv-x="588" 
d="M510 474v-445q0 -15 -11 -23t-28 -8q-16 0 -26.5 8t-10.5 23l-1 69h-5q-21 -53 -66.5 -81.5t-102.5 -28.5q-191 0 -191 203v283q0 15 11.5 23.5t28.5 8.5t28.5 -8.5t11.5 -23.5v-292q0 -156 129 -156q67 0 110 53t43 136v259q0 15 11.5 23.5t28.5 8.5t28.5 -8.5
t11.5 -23.5zM182 601q-22 0 -34.5 10.5t-12.5 26.5t12.5 26t34.5 10q21 0 33.5 -10.5t12.5 -25.5q0 -16 -12.5 -26.5t-33.5 -10.5zM398 601q-21 0 -34 10.5t-13 26.5q0 15 13 25.5t34 10.5t33.5 -10.5t12.5 -25.5q0 -16 -12.5 -26.5t-33.5 -10.5z" />
    <glyph glyph-name="ydieresis" unicode="&#xff;" horiz-adv-x="490" 
d="M95 480l126 -327l36 -99h3l34 80q58 135 94 232l43 116q10 24 30 24q29 0 29 -22q0 -11 -11 -36l-163 -358q-94 -202 -135 -278q-18 -35 -40 -35q-10 0 -17.5 6t-7.5 17q0 12 12 29q50 71 89 146l-19 41l-182 432q-6 16 -6 25q0 16 12 24.5t30 8.5q33 0 43 -26zM151 601
q-22 0 -34.5 10.5t-12.5 26.5t12.5 26t34.5 10q21 0 33.5 -10.5t12.5 -25.5q0 -16 -12.5 -26.5t-33.5 -10.5zM367 601q-21 0 -34 10.5t-13 26.5q0 15 13 25.5t34 10.5t33.5 -10.5t12.5 -25.5q0 -16 -12.5 -26.5t-33.5 -10.5z" />
    <glyph glyph-name="dotlessi" unicode="&#x131;" horiz-adv-x="236" 
d="M78 30v445q0 15 11.5 23.5t29.5 8.5q17 0 28 -8.5t11 -23.5v-445q0 -15 -11 -23.5t-28 -8.5t-29 8.5t-12 23.5z" />
    <glyph glyph-name="OE" unicode="&#x152;" horiz-adv-x="1155" 
d="M44 354q0 166 95 266t245 100q84 0 148.5 -33t99.5 -95h4v66q0 48 60 48h385q24 0 24 -21q0 -20 -24 -20h-365v-271h315q24 0 24 -21t-24 -21h-315v-307h375q24 0 24 -20q0 -21 -24 -21h-417q-39 0 -39 37v80h-4q-77 -133 -251 -133q-153 0 -244.5 96t-91.5 270zM134 354
q0 -157 67 -243.5t183 -86.5q118 0 186.5 85t68.5 245q0 165 -67.5 247.5t-185.5 82.5q-116 0 -184 -88.5t-68 -241.5z" />
    <glyph glyph-name="oe" unicode="&#x153;" horiz-adv-x="974" 
d="M34 249q0 120 72.5 193.5t183.5 73.5q157 0 211 -129h4q58 129 204 129q97 0 159.5 -58t62.5 -166v-9q0 -35 -38 -35h-352v-8q0 -96 44 -156t127 -60q95 0 151 60q16 17 29 17q8 0 14 -5.5t6 -13.5t-9 -19q-69 -75 -199 -75q-70 0 -123 32.5t-80 94.5h-4
q-59 -127 -207 -127q-114 0 -185 70t-71 191zM119 249q0 -112 47 -170t124 -58q76 0 123.5 61.5t47.5 171.5q0 114 -47 171.5t-124 57.5q-76 0 -123.5 -63t-47.5 -171zM543 285h310v15q0 89 -39 136t-107 47q-70 0 -113.5 -51.5t-50.5 -146.5z" />
    <glyph glyph-name="Ydieresis" unicode="&#x178;" horiz-adv-x="567" 
d="M36 710q34 0 53 -32l211 -352l129 214l78 143q14 27 36 27q10 0 18.5 -5.5t8.5 -16.5q0 -9 -9 -24q-78 -135 -242 -374v-259q0 -15 -12 -24t-30 -9t-29 9t-11 24v257l-231 370q-8 13 -8 23q0 13 10.5 21t27.5 8zM187 794q-21 0 -34 10.5t-13 26.5t13 26.5t34 10.5
q22 0 34.5 -10.5t12.5 -26.5t-12.5 -26.5t-34.5 -10.5zM404 794q-22 0 -34.5 10.5t-12.5 26.5t12.5 26.5t34.5 10.5q21 0 33.5 -10.5t12.5 -26.5t-12.5 -26.5t-33.5 -10.5z" />
    <glyph glyph-name="circumflex" unicode="&#x2c6;" horiz-adv-x="510" 
d="M386 580l-119 81l-117 -82q-8 -5 -14 -5q-15 0 -15 14q0 8 9 15l111 106q15 13 30 13t30 -13l108 -107q7 -7 7 -14q0 -14 -14 -14q-7 0 -16 6z" />
    <glyph glyph-name="ring" unicode="&#x2da;" horiz-adv-x="522" 
d="M173 654q0 37 25.5 62t62.5 25q39 0 63.5 -24.5t24.5 -62.5q0 -37 -25.5 -62t-62.5 -25q-40 0 -64 24.5t-24 62.5zM203 654q0 -27 15.5 -44t42.5 -17q24 0 41 17t17 44q0 26 -16 43.5t-42 17.5q-24 0 -41 -17.5t-17 -43.5z" />
    <glyph glyph-name="tilde" unicode="&#x2dc;" horiz-adv-x="549" 
d="M339 592q-43 0 -86 26q-39 22 -59 22q-32 0 -51 -37q-6 -12 -16 -12q-15 0 -15 14q0 7 4 17q28 67 93 67q41 0 86 -26q37 -22 59 -22q18 0 29 8t21 28q7 12 17 12q15 0 15 -13q0 -7 -4 -17q-26 -67 -93 -67z" />
    <glyph glyph-name="mu" unicode="&#x3bc;" horiz-adv-x="587" 
d="M510 474v-445q0 -15 -11 -23t-28 -8q-34 0 -36 31l-2 70h-5q-45 -111 -163 -111q-43 0 -82.5 16t-59.5 50l-4 -1q0 -18 13 -101t13 -128v-8q0 -16 -10.5 -25.5t-27.5 -9.5t-28 9.5t-11 26.5v657q0 15 11.5 23.5t28.5 8.5t28.5 -8.5t11.5 -23.5v-291q0 -68 24 -105
q33 -52 105 -52q67 0 110 53.5t43 136.5v258q0 15 11.5 23.5t28.5 8.5t28.5 -8.5t11.5 -23.5z" />
    <glyph glyph-name="endash" unicode="&#x2013;" horiz-adv-x="581" 
d="M72 308h437q25 0 25 -22t-25 -22h-437q-24 0 -24 22t24 22z" />
    <glyph glyph-name="emdash" unicode="&#x2014;" horiz-adv-x="718" 
d="M-16 308h751v-44h-751v44z" />
    <glyph glyph-name="quoteleft" unicode="&#x2018;" horiz-adv-x="150" 
d="M33 530q0 58 43 166q6 14 17 14q15 0 15 -16q0 -3 -1.5 -13.5t-1.5 -15.5q-3 -33 -3 -92q0 -7 0.5 -21t0.5 -19q0 -39 -36 -39q-34 0 -34 36z" />
    <glyph glyph-name="quoteright" unicode="&#x2019;" horiz-adv-x="150" 
d="M118 674q0 -58 -43 -166q-6 -14 -17 -14q-15 0 -15 16q0 3 1.5 13.5t1.5 15.5q3 33 3 92q0 7 -0.5 21t-0.5 19q0 39 36 39q34 0 34 -36z" />
    <glyph glyph-name="quotesinglbase" unicode="&#x201a;" horiz-adv-x="178" 
d="M117 43q0 -59 -43 -166q-6 -14 -17 -14q-15 0 -15 16q0 3 1.5 13.5t1.5 15.5q3 33 3 92q0 7 -0.5 21t-0.5 19q0 39 36 39q34 0 34 -36z" />
    <glyph glyph-name="quotedblleft" unicode="&#x201c;" horiz-adv-x="288" 
d="M33 530q0 58 43 166q6 14 17 14q15 0 15 -16q0 -3 -1.5 -13.5t-1.5 -15.5q-3 -33 -3 -92q0 -7 0.5 -21t0.5 -19q0 -39 -36 -39q-34 0 -34 36zM170 530q0 58 43 166q6 14 17 14q15 0 15 -16q0 -3 -1.5 -13.5t-1.5 -15.5q-3 -33 -3 -92q0 -7 0.5 -21t0.5 -19q0 -39 -36 -39
q-34 0 -34 36z" />
    <glyph glyph-name="quotedblright" unicode="&#x201d;" horiz-adv-x="288" 
d="M255 674q0 -58 -43 -166q-6 -14 -17 -14q-15 0 -15 16q0 3 1.5 13.5t1.5 15.5q3 33 3 92q0 7 -0.5 21t-0.5 19q0 39 36 39q34 0 34 -36zM118 674q0 -58 -43 -166q-6 -14 -17 -14q-15 0 -15 16q0 3 1.5 13.5t1.5 15.5q3 33 3 92q0 7 -0.5 21t-0.5 19q0 39 36 39
q34 0 34 -36z" />
    <glyph glyph-name="quotedblbase" unicode="&#x201e;" horiz-adv-x="315" 
d="M254 43q0 -59 -43 -166q-6 -14 -17 -14q-15 0 -15 16q0 3 1.5 13.5t1.5 15.5q3 33 3 92q0 7 -0.5 21t-0.5 19q0 39 36 39q34 0 34 -36zM117 43q0 -59 -43 -166q-6 -14 -17 -14q-15 0 -15 16q0 3 1.5 13.5t1.5 15.5q3 33 3 92q0 7 -0.5 21t-0.5 19q0 39 36 39q34 0 34 -36
z" />
    <glyph glyph-name="dagger" unicode="&#x2020;" horiz-adv-x="517" 
d="M224 436h-163q-23 0 -23 20t23 20h163v193q0 12 10 19.5t25 7.5t25 -7.5t10 -19.5v-193h162q24 0 24 -20t-24 -20h-162v-530q0 -12 -10 -19.5t-25 -7.5t-25 7.5t-10 19.5v530z" />
    <glyph glyph-name="daggerdbl" unicode="&#x2021;" horiz-adv-x="537" 
d="M234 436h-163q-23 0 -23 20t23 20h163v193q0 12 10 19.5t25 7.5t25 -7.5t10 -19.5v-193h162q24 0 24 -20t-24 -20h-162v-297h162q24 0 24 -20t-24 -20h-162v-193q0 -12 -10 -19.5t-25 -7.5t-25 7.5t-10 19.5v193h-163q-23 0 -23 20t23 20h163v297z" />
    <glyph glyph-name="bullet" unicode="&#x2022;" horiz-adv-x="308" 
d="M70 329q0 35 24 59.5t60 24.5q35 0 59.5 -24.5t24.5 -59.5t-24.5 -59.5t-59.5 -24.5q-36 0 -60 24.5t-24 59.5z" />
    <glyph glyph-name="ellipsis" unicode="&#x2026;" horiz-adv-x="576" 
d="M96 -7q-24 0 -38 12.5t-14 31.5q0 18 14.5 30t37.5 12q24 0 38 -12t14 -30q0 -19 -14 -31.5t-38 -12.5zM288 -7q-24 0 -38 12.5t-14 31.5q0 18 14.5 30t37.5 12q24 0 38 -12t14 -30q0 -19 -14 -31.5t-38 -12.5zM480 -7q-24 0 -38 12.5t-14 31.5q0 18 14.5 30t37.5 12
q24 0 38 -12t14 -30q0 -19 -14 -31.5t-38 -12.5z" />
    <glyph glyph-name="perthousand" unicode="&#x2030;" horiz-adv-x="1166" 
d="M127 27l482 668q11 15 25 15q10 0 18.5 -5.5t8.5 -14.5q0 -6 -7 -19l-483 -668q-10 -15 -24 -15q-11 0 -19 5.5t-8 14.5q0 8 7 19zM33 535q0 81 45.5 131t115.5 50q73 0 117 -45.5t44 -127.5q0 -81 -45 -130.5t-116 -49.5q-74 0 -117.5 44.5t-43.5 127.5zM100 535
q0 -142 94 -142q44 0 69 39t25 111q0 143 -94 143q-44 0 -69 -39.5t-25 -111.5zM755 174q0 -81 -45.5 -131t-115.5 -50q-74 0 -118 45.5t-44 127.5q0 81 45.5 130t116.5 49q73 0 117 -44t44 -127zM688 173q0 143 -94 143q-44 0 -69 -39t-25 -111q0 -143 94 -143
q44 0 69 39.5t25 110.5zM1134 174q0 -81 -46 -131t-116 -50q-74 0 -117.5 45.5t-43.5 127.5q0 81 45 130t116 49q74 0 118 -44.5t44 -126.5zM1066 173q0 143 -94 143q-44 0 -69 -39t-25 -111q0 -143 94 -143q44 0 69 39.5t25 110.5z" />
    <glyph glyph-name="guilsinglleft" unicode="&#x2039;" horiz-adv-x="252" 
d="M110 265l103 -166q7 -13 7 -18q0 -15 -18 -15q-10 0 -17 9l-124 149q-18 22 -18 36t18 36l124 148q7 9 18 9q17 0 17 -14q0 -7 -7 -18z" />
    <glyph glyph-name="guilsinglright" unicode="&#x203a;" horiz-adv-x="252" 
d="M143 254l-103 166q-7 13 -7 18q0 15 18 15q10 0 17 -9l124 -149q18 -22 18 -36q0 -13 -18 -36l-124 -148q-8 -9 -18 -9q-17 0 -17 14q0 7 7 18z" />
    <glyph glyph-name="fraction" unicode="&#x2044;" horiz-adv-x="394" 
d="M-90 -26l503 740q9 14 23 14q10 0 18.5 -5t8.5 -14q0 -8 -7 -18l-503 -740q-9 -14 -23 -14q-10 0 -18.5 5t-8.5 14q0 8 7 18z" />
    <glyph glyph-name="Euro" unicode="&#x20ac;" horiz-adv-x="654" 
d="M409 -12q-114 0 -191 65.5t-99 197.5h-68q-21 0 -21 20q0 21 21 21h63q-2 19 -2 59q0 33 2 55h-63q-21 0 -21 21t21 21h69q24 128 106.5 200t191.5 72q138 0 197 -74q10 -13 10 -25q0 -10 -7 -17.5t-19 -7.5q-17 0 -37 23q-29 36 -62.5 51t-81.5 15q-75 0 -137.5 -62.5
t-78.5 -174.5h222q21 0 21 -21t-21 -21h-225q-3 -25 -3 -52q0 -34 3 -62h170q21 0 21 -20q0 -21 -21 -21h-166q15 -109 71 -168t139 -59q93 0 157 65q18 18 32 18q9 0 15.5 -5.5t6.5 -13.5q0 -12 -10 -23q-34 -38 -90 -57.5t-115 -19.5z" />
    <glyph glyph-name="trademark" unicode="&#x2122;" horiz-adv-x="734" 
d="M636 387v192q0 42 2 82h-4q-11 -31 -27 -65l-74 -146q-8 -17 -27 -17q-18 0 -26 17l-75 159q-12 24 -19 52h-4q1 -21 1 -89v-189q0 -18 -16 -18q-17 0 -17 18v297q0 27 37 27q25 0 35 -18q25 -41 97 -206q47 106 96 201q11 23 40 23q31 0 31 -25v-295q0 -10 -7 -16
t-18 -6t-18 6t-7 16zM33 706h241q15 0 15 -14t-15 -14h-95v-291q0 -10 -7.5 -16t-18.5 -6t-18 6t-7 16v291h-95q-15 0 -15 14t15 14z" />
    <glyph glyph-name="estimated" unicode="&#x212e;" horiz-adv-x="597" 
d="M147 253v-149q0 -10 9 -23q51 -67 154 -67q61 0 113 25.5t76 73.5h33q-31 -65 -92.5 -95t-130.5 -30q-111 0 -181 73t-70 187q0 110 71.5 185.5t171.5 75.5q101 0 170 -68t69 -178v-10h-393zM147 279h310v114q0 10 -8 24q-49 66 -147 66q-94 0 -146 -67q-9 -14 -9 -25
v-112z" />
    <glyph glyph-name="minus" unicode="&#x2212;" horiz-adv-x="540" 
d="M72 349h396q24 0 24 -22t-24 -22h-396q-24 0 -24 22t24 22z" />
    <glyph glyph-name="acute.cap" horiz-adv-x="549" 
d="M381 869l-129 -93q-9 -6 -17 -6q-14 0 -14 13q0 7 7 14l103 112q15 18 35 18q13 0 24 -8t11 -22t-20 -28z" />
    <glyph glyph-name="grave.cap" horiz-adv-x="478" 
d="M303 776l-127 92q-20 15 -20 29t10.5 22t24.5 8q21 0 37 -18l100 -112q7 -7 7 -14q0 -13 -15 -13q-10 0 -17 6z" />
    <glyph glyph-name="circumflex.cap" horiz-adv-x="510" 
d="M379 775l-120 76l-116 -76q-8 -5 -16 -5q-14 0 -14 13q0 7 8 15l112 102q14 14 30 14q14 0 30 -14l108 -102q8 -8 8 -15q0 -13 -14 -13q-8 0 -16 5z" />
    <glyph glyph-name="dieresis.cap" horiz-adv-x="565" 
d="M175 794q-21 0 -34 10.5t-13 26.5t13 26.5t34 10.5q22 0 34.5 -10.5t12.5 -26.5t-12.5 -26.5t-34.5 -10.5zM392 794q-22 0 -34.5 10.5t-12.5 26.5t12.5 26.5t34.5 10.5q21 0 33.5 -10.5t12.5 -26.5t-12.5 -26.5t-33.5 -10.5z" />
    <glyph glyph-name="ring.cap" horiz-adv-x="470" 
d="M152 825q0 37 25.5 62t62.5 25q39 0 63.5 -24.5t24.5 -62.5q0 -37 -25.5 -62t-62.5 -25q-40 0 -64 24.5t-24 62.5zM182 825q0 -27 15.5 -44t42.5 -17q24 0 41 17t17 44q0 26 -16 43.5t-42 17.5q-24 0 -41 -17.5t-17 -43.5z" />
    <glyph glyph-name="tilde.cap" horiz-adv-x="598" 
d="M363 786q-43 0 -86 26q-39 22 -59 22q-32 0 -51 -37q-6 -12 -16 -12q-15 0 -15 14q0 7 4 17q28 67 93 67q41 0 86 -26q37 -22 59 -22q18 0 29 8t21 28q7 12 17 12q15 0 15 -13q0 -7 -4 -17q-26 -67 -93 -67z" />
    <glyph glyph-name="cedilla.alt" horiz-adv-x="469" 
d="M195 -57l32 79l31 -8l-22 -59q80 -13 80 -74q0 -36 -26 -56.5t-69 -20.5q-32 0 -55 10q-15 7 -15 17q0 16 15 16q5 0 14 -3q24 -9 44 -9q48 0 48 37q0 33 -63 38q-18 2 -18 18q0 6 4 15z" />
    <glyph glyph-name="registered.alt" horiz-adv-x="904" 
d="M96 354q0 156 104.5 261t251.5 105q149 0 252.5 -104.5t103.5 -261.5q0 -156 -105 -261t-251 -105q-153 0 -254.5 104t-101.5 262zM136 354q0 -143 91.5 -237t224.5 -94q132 0 224 94.5t92 236.5q0 144 -91 237.5t-225 93.5q-132 0 -224 -94t-92 -237zM379 331v-134
q0 -21 -26 -21q-25 0 -25 21v310q0 23 26 28q27 3 78 3q149 0 149 -101q0 -81 -90 -99l87 -129q6 -10 6 -14q0 -19 -25 -19q-17 0 -29 17q-18 25 -87 138h-64zM433 358q50 0 74 19t24 60q0 74 -101 74q-41 0 -51 -1v-152h54z" />
    <glyph glyph-name="two.deno" horiz-adv-x="375" 
d="M272 344q0 80 -86 80q-58 0 -94 -47q-14 -18 -27 -18q-20 0 -20 18q0 10 11 23q20 23 55 38.5t76 15.5q69 0 109 -30t40 -81q0 -41 -25 -75t-73 -75l-52 -42q-79 -66 -106 -95v-3h231q26 0 26 -24q0 -25 -26 -25h-258q-25 0 -25 27q0 14 12 29q40 48 124 122
q55 48 81.5 83.5t26.5 78.5z" />
    <glyph glyph-name="four.deno" horiz-adv-x="428" 
d="M267 107h-203q-26 0 -26 25q0 13 8 26q18 28 65 89l134 177q17 22 43 22q39 0 39 -31v-263h42q24 0 24 -22q0 -23 -24 -23h-42v-83q0 -24 -30 -24t-30 24v83zM267 152v106q0 90 3 144h-3q-12 -19 -51 -73l-78 -104q-23 -32 -54 -70v-3h183z" />
    <glyph glyph-name="a.alt" horiz-adv-x="523" 
d="M248 517q111 0 159.5 -53.5t48.5 -156.5v-280q0 -30 -38 -30q-37 0 -37 30l-1 64h-4q-50 -101 -173 -101q-81 0 -128 39.5t-47 105.5q0 72 56 117.5t148 45.5q74 0 142 -26v66q0 69 -27.5 107t-99.5 38q-77 0 -123 -58q-21 -23 -38 -23q-10 0 -17 6.5t-7 16.5q0 13 15 30
q24 25 70.5 43.5t100.5 18.5zM108 139q0 -52 31 -82.5t85 -30.5q66 0 108 45.5t42 109.5v57q-60 26 -127 26q-65 0 -102 -34t-37 -91z" />
    <glyph glyph-name="aacute.alt" horiz-adv-x="523" 
d="M248 517q111 0 159.5 -53.5t48.5 -156.5v-280q0 -30 -38 -30q-37 0 -37 30l-1 64h-4q-50 -101 -173 -101q-81 0 -128 39.5t-47 105.5q0 72 56 117.5t148 45.5q74 0 142 -26v66q0 69 -27.5 107t-99.5 38q-77 0 -123 -58q-21 -23 -38 -23q-10 0 -17 6.5t-7 16.5q0 13 15 30
q24 25 70.5 43.5t100.5 18.5zM108 139q0 -52 31 -82.5t85 -30.5q66 0 108 45.5t42 109.5v57q-60 26 -127 26q-65 0 -102 -34t-37 -91zM359 673l-129 -93q-9 -6 -17 -6q-14 0 -14 13q0 7 7 14l103 112q15 18 35 18q13 0 24 -8t11 -22q0 -15 -20 -28z" />
    <glyph glyph-name="agrave.alt" horiz-adv-x="523" 
d="M248 517q111 0 159.5 -53.5t48.5 -156.5v-280q0 -30 -38 -30q-37 0 -37 30l-1 64h-4q-50 -101 -173 -101q-81 0 -128 39.5t-47 105.5q0 72 56 117.5t148 45.5q74 0 142 -26v66q0 69 -27.5 107t-99.5 38q-77 0 -123 -58q-21 -23 -38 -23q-10 0 -17 6.5t-7 16.5q0 13 15 30
q24 25 70.5 43.5t100.5 18.5zM108 139q0 -52 31 -82.5t85 -30.5q66 0 108 45.5t42 109.5v57q-60 26 -127 26q-65 0 -102 -34t-37 -91zM284 580l-127 92q-19 15 -19 29t10.5 22t23.5 8q22 0 37 -18l101 -112q7 -7 7 -14q0 -13 -16 -13q-8 0 -17 6z" />
    <glyph glyph-name="acircumflex.alt" horiz-adv-x="523" 
d="M248 517q111 0 159.5 -53.5t48.5 -156.5v-280q0 -30 -38 -30q-37 0 -37 30l-1 64h-4q-50 -101 -173 -101q-81 0 -128 39.5t-47 105.5q0 72 56 117.5t148 45.5q74 0 142 -26v66q0 69 -27.5 107t-99.5 38q-77 0 -123 -58q-21 -23 -38 -23q-10 0 -17 6.5t-7 16.5q0 13 15 30
q24 25 70.5 43.5t100.5 18.5zM108 139q0 -52 31 -82.5t85 -30.5q66 0 108 45.5t42 109.5v57q-60 26 -127 26q-65 0 -102 -34t-37 -91zM377 580l-119 81l-117 -82q-7 -5 -14 -5q-15 0 -15 14q0 8 9 15l111 106q15 13 30 13t30 -13l108 -107q7 -7 7 -14q0 -14 -14 -14
q-7 0 -16 6z" />
    <glyph glyph-name="adieresis.alt" horiz-adv-x="523" 
d="M248 517q111 0 159.5 -53.5t48.5 -156.5v-280q0 -30 -38 -30q-37 0 -37 30l-1 64h-4q-50 -101 -173 -101q-81 0 -128 39.5t-47 105.5q0 72 56 117.5t148 45.5q74 0 142 -26v66q0 69 -27.5 107t-99.5 38q-77 0 -123 -58q-21 -23 -38 -23q-10 0 -17 6.5t-7 16.5q0 13 15 30
q24 25 70.5 43.5t100.5 18.5zM108 139q0 -52 31 -82.5t85 -30.5q66 0 108 45.5t42 109.5v57q-60 26 -127 26q-65 0 -102 -34t-37 -91zM150 601q-22 0 -34.5 10.5t-12.5 26.5t12.5 26t34.5 10q21 0 33.5 -10.5t12.5 -25.5q0 -16 -12.5 -26.5t-33.5 -10.5zM366 601
q-21 0 -34 10.5t-13 26.5q0 15 13 25.5t34 10.5t33.5 -10.5t12.5 -25.5q0 -16 -12.5 -26.5t-33.5 -10.5z" />
    <glyph glyph-name="atilde.alt" horiz-adv-x="523" 
d="M248 517q111 0 159.5 -53.5t48.5 -156.5v-280q0 -30 -38 -30q-37 0 -37 30l-1 64h-4q-50 -101 -173 -101q-81 0 -128 39.5t-47 105.5q0 72 56 117.5t148 45.5q74 0 142 -26v66q0 69 -27.5 107t-99.5 38q-77 0 -123 -58q-21 -23 -38 -23q-10 0 -17 6.5t-7 16.5q0 13 15 30
q24 25 70.5 43.5t100.5 18.5zM108 139q0 -52 31 -82.5t85 -30.5q66 0 108 45.5t42 109.5v57q-60 26 -127 26q-65 0 -102 -34t-37 -91zM326 592q-43 0 -86 26q-38 22 -59 22q-32 0 -51 -37q-6 -12 -16 -12q-15 0 -15 14q0 7 4 17q28 67 93 67q41 0 86 -26q37 -22 59 -22
q18 0 29 8t21 28q7 12 17 12q15 0 15 -13q0 -7 -4 -17q-26 -67 -93 -67z" />
    <glyph glyph-name="aring.alt" horiz-adv-x="523" 
d="M172 654q0 37 25.5 62t62.5 25q39 0 63.5 -24.5t24.5 -62.5q0 -37 -25.5 -62t-62.5 -25q-40 0 -64 24.5t-24 62.5zM202 654q0 -27 15.5 -44t42.5 -17q24 0 41 17t17 44q0 26 -16 43.5t-42 17.5q-24 0 -41 -17.5t-17 -43.5zM248 517q111 0 159.5 -53.5t48.5 -156.5v-280
q0 -30 -38 -30q-37 0 -37 30l-1 64h-4q-50 -101 -173 -101q-81 0 -128 39.5t-47 105.5q0 72 56 117.5t148 45.5q74 0 142 -26v66q0 69 -27.5 107t-99.5 38q-77 0 -123 -58q-21 -23 -38 -23q-10 0 -17 6.5t-7 16.5q0 13 15 30q24 25 70.5 43.5t100.5 18.5zM108 139
q0 -52 31 -82.5t85 -30.5q66 0 108 45.5t42 109.5v57q-60 26 -127 26q-65 0 -102 -34t-37 -91z" />
    <glyph glyph-name="ae.alt" horiz-adv-x="902" 
d="M36 135q0 78 61.5 116.5t168.5 38.5h123v44q0 149 -132 149q-77 0 -123 -58q-21 -23 -37 -23q-24 0 -24 23q0 15 14 30q23 26 70 44t101 18q146 0 184 -101h5q59 101 191 101q97 0 158.5 -57t61.5 -163v-9q0 -35 -38 -35h-350v-12q0 -95 45 -155t126 -60q91 0 150 60
q16 17 28 17q20 0 20 -19q0 -8 -8 -19q-68 -75 -199 -75q-153 0 -207 114h-4q-56 -114 -199 -114q-83 0 -134.5 38.5t-51.5 106.5zM116 139q0 -57 32 -87t89 -30q68 0 110 47.5t42 128.5v55h-130q-143 0 -143 -114zM472 290h309v11q0 87 -39 135t-106 48q-69 0 -113.5 -50.5
t-50.5 -143.5z" />
    <glyph glyph-name="ordfeminine.alt" horiz-adv-x="409" 
d="M203 714q80 0 114.5 -37t34.5 -110v-196q0 -24 -30 -24q-28 0 -28 24l-1 33h-4q-34 -63 -118 -63q-58 0 -91.5 29t-33.5 76q0 51 40.5 83t107.5 32q51 0 95 -15v40q0 99 -86 99q-53 0 -85 -40q-16 -17 -28 -17q-20 0 -20 19q0 11 12 23q17 18 50 31t71 13zM108 450
q0 -36 21 -57t58 -21q46 0 74 31t28 75v37q-42 18 -86 18q-45 0 -70 -22t-25 -61z" />
    <glyph glyph-name="Ccedilla.alt" horiz-adv-x="680" 
d="M320 -57l18 46q-136 11 -215 107t-79 260q0 165 93.5 264.5t238.5 99.5q92 0 156 -29t93 -71q9 -12 9 -25q0 -11 -8 -18.5t-21 -7.5q-19 0 -40 27q-66 88 -187 88q-113 0 -178.5 -89.5t-65.5 -238.5q0 -152 66 -242t178 -90q123 0 199 93q19 24 34 24q22 0 24 -21
q0 -11 -11 -25q-36 -49 -100.5 -77.5t-150.5 -29.5l-12 -33q80 -13 80 -74q0 -36 -26 -56.5t-69 -20.5q-32 0 -55 10q-15 7 -15 17q0 16 15 16q5 0 14 -3q24 -9 44 -9q48 0 48 37q0 33 -63 38q-18 2 -18 18q0 6 4 15z" />
    <glyph glyph-name="ccedilla.alt" horiz-adv-x="512" 
d="M227 -57l20 49q-100 10 -156.5 79.5t-56.5 180.5q0 114 70 189.5t184 75.5q128 0 182 -70q10 -11 10 -22q0 -10 -7 -17.5t-20 -7.5q-18 0 -36 24q-43 60 -127 60q-78 0 -125 -64.5t-47 -164.5q0 -102 45 -165.5t127 -63.5q83 0 140 60q17 18 29 18q8 0 14 -5.5t6 -13.5
q0 -9 -9 -19q-66 -76 -189 -76l-13 -35q80 -13 80 -74q0 -36 -26 -56.5t-69 -20.5q-32 0 -55 10q-15 7 -15 17q0 16 15 16q5 0 14 -3q24 -9 44 -9q48 0 48 37q0 33 -63 38q-18 2 -18 18q0 6 4 15z" />
    </font>
</defs>
</svg>
