<?xml version="1.0" encoding="UTF-8"?>
<svg width="35px" height="34px" viewBox="0 0 35 34" version="1.1" xmlns="http://www.w3.org/2000/svg" xmlns:xlink="http://www.w3.org/1999/xlink">
    <!-- Generator: Sketch 43.1 (39012) - http://www.bohemiancoding.com/sketch -->
    <title>homelogo</title>
    <desc>Created with Sketch.</desc>
    <defs></defs>
    <g id="Symbols" stroke="none" stroke-width="1" fill="none" fill-rule="evenodd">
        <g id="Footer" transform="translate(-82.000000, -12.000000)" fill-rule="nonzero" fill="#2E2E2E">
            <g id="homelogo" transform="translate(82.000000, 12.000000)">
                <path d="M30.625,33.8333333 L20.4166667,33.8333333 L20.4166667,24.2717391 L14.5833333,24.2717391 L14.5833333,33.8333333 L4.375,33.8333333 L4.375,18.3876812 C4.375,17.9816812 4.7009375,17.6521739 5.10416667,17.6521739 C5.50739583,17.6521739 5.83333333,17.9816812 5.83333333,18.3876812 L5.83333333,32.3623188 L13.125,32.3623188 L13.125,22.8007246 L21.875,22.8007246 L21.875,32.3623188 L29.1666667,32.3623188 L29.1666667,19.1231884 C29.1666667,18.7171884 29.4926042,18.3876812 29.8958333,18.3876812 C30.2990625,18.3876812 30.625,18.7171884 30.625,19.1231884 L30.625,33.8333333 Z" id="Shape"></path>
                <path d="M34.2708333,18.3876812 C34.0892708,18.3876812 33.9084375,18.3200145 33.7669792,18.1839457 L17.5,2.48895652 L1.23302083,18.1839457 C0.942083333,18.4641739 0.480520833,18.4546123 0.201979167,18.1611449 C-0.0765625,17.8676775 -0.065625,17.4021014 0.224583333,17.1211377 L17.5,0.453072464 L34.7746875,17.1204022 C35.0648958,17.4013659 35.0758333,17.866942 34.7972917,18.1604094 C34.654375,18.3111884 34.4633333,18.3876812 34.2708333,18.3876812 Z" id="Shape"></path>
                <path d="M28.4375,9.5615942 C28.4375,9.5615942 27.7083333,9.23208696 27.7083333,8.82608696 L27.7083333,4.41304348 L23.3333333,4.41304348 C22.9301042,4.41304348 22.6041667,4.08353623 22.6041667,3.67753623 C22.6041667,3.27153623 22.9301042,2.94202899 23.3333333,2.94202899 L29.1666667,2.94202899 L29.1666667,8.82608696 C29.1666667,9.23208696 28.4375,9.5615942 28.4375,9.5615942 Z" id="Shape" style="mix-blend-mode: darken;"></path>
            </g>
        </g>
    </g>
</svg>